<?xml version="1.0" encoding="UTF-8"?>
<svg id="Layer_1" xmlns="http://www.w3.org/2000/svg" version="1.1" xmlns:xlink="http://www.w3.org/1999/xlink" viewBox="0 0 500 500">
  <!-- Generator: Adobe Illustrator 30.3.0, SVG Export Plug-In . SVG Version: 2.1.3 Build 182)  -->
  <defs>
    <style>
      .st0 {
        fill-opacity: .1;
      }

      .st0, .st1, .st2, .st3, .st4 {
        fill: #7ea9d8;
      }

      .st5 {
        clip-path: url(#clippath-6);
      }

      .st6 {
        clip-path: url(#clippath-7);
      }

      .st7 {
        clip-path: url(#clippath-4);
      }

      .st8 {
        opacity: .1;
      }

      .st9 {
        fill: #a79ab4;
      }

      .st10 {
        fill: #6d5ea4;
      }

      .st1 {
        fill-opacity: 0;
      }

      .st11 {
        fill: none;
      }

      .st12 {
        clip-path: url(#clippath-1);
      }

      .st13 {
        clip-path: url(#clippath-5);
      }

      .st14 {
        clip-path: url(#clippath-8);
      }

      .st2 {
        fill-opacity: .4;
      }

      .st15 {
        clip-path: url(#clippath-3);
      }

      .st3, .st16 {
        fill-opacity: .2;
      }

      .st17 {
        fill: #062641;
      }

      .st16 {
        fill: #943f78;
      }

      .st4 {
        fill-opacity: .5;
      }

      .st18 {
        clip-path: url(#clippath-2);
      }

      .st19 {
        fill: #323665;
      }

      .st20 {
        clip-path: url(#clippath);
      }
    </style>
    <clipPath id="clippath">
      <rect class="st11" x="85.3" y="74.7" width="352" height="350.7"/>
    </clipPath>
    <clipPath id="clippath-1">
      <rect class="st11" x="86.8" y="75.7" width="349" height="349"/>
    </clipPath>
    <clipPath id="clippath-2">
      <rect class="st11" x="126.7" y="149.5" width="152" height="117.2"/>
    </clipPath>
    <clipPath id="clippath-3">
      <rect class="st11" x="206.7" y="149.5" width="72" height="49.2"/>
    </clipPath>
    <clipPath id="clippath-4">
      <rect class="st11" x="119" y="200" width="291.6" height="137.5"/>
    </clipPath>
    <clipPath id="clippath-5">
      <rect class="st11" x="119" y="200" width="291.6" height="120"/>
    </clipPath>
    <clipPath id="clippath-6">
      <rect class="st11" x="119" y="214.7" width="291.6" height="122.8"/>
    </clipPath>
    <clipPath id="clippath-7">
      <rect class="st11" x="119" y="220" width="291.6" height="117.5"/>
    </clipPath>
    <clipPath id="clippath-8">
      <rect class="st11" x="397.3" y="213.3" width="29.7" height="90.7"/>
    </clipPath>
  </defs>
  <g class="st8">
    <g class="st20">
      <g>
        <g class="st12">
          <path class="st19" d="M384.4,126.7c-32.9-32.9-76.7-51-123.3-51s-90.3,18.1-123.3,51c-32.9,33-51,76.8-51,123.3s18.1,90.3,51,123.3l1.2-1.2c-32.6-32.6-50.6-75.9-50.6-122.1s17.9-89.4,50.6-122.1c32.6-32.6,75.9-50.5,122.1-50.5s89.4,17.9,122.1,50.6c32.6,32.6,50.6,75.9,50.6,122.1s-17.9,89.4-50.6,122.1-75.9,50.5-122.1,50.5-89.4-17.9-122.1-50.6l-1.2,1.2c32.9,32.9,76.7,51,123.3,51s90.3-18.1,123.3-51,51-76.7,51-123.3-18.1-90.3-51-123.3"/>
        </g>
        <path class="st19" d="M146.6,364.5c30.6,30.6,71.2,47.4,114.5,47.4s83.9-16.8,114.5-47.4,47.4-71.2,47.4-114.5h-1.7c0,42.8-16.7,83-46.9,113.3-30.3,30.2-70.5,46.9-113.3,46.9s-83-16.7-113.3-46.9c-30.3-30.3-46.9-70.5-46.9-113.3s16.7-83,46.9-113.3c30.2-30.2,70.5-46.9,113.3-46.9s83,16.7,113.3,46.9c30.3,30.3,46.9,70.5,46.9,113.3h1.7c0-43.3-16.8-83.9-47.4-114.5-30.6-30.6-71.2-47.4-114.5-47.4s-83.9,16.8-114.5,47.4-47.4,71.3-47.4,114.4,16.9,84,47.4,114.5"/>
        <path class="st19" d="M117,280c0-.5-.6-.8-1-.7-.5.1-.8.6-.7,1,.2.9.3,1.7.6,2.6,0,.4.5.7.9.7h.2c.5-.1.7-.6.6-1h0c-.2-.9-.3-1.7-.5-2.6M120.2,292.6c0-.5-.6-.7-1.1-.6s-.7.6-.6,1.1c.2.9.5,1.7.8,2.5,0,.3.4.6.8.6h.3c.5-.2.7-.6.6-1.1-.2-.8-.5-1.6-.8-2.4M114.9,267.1c0-.5-.5-.8-1-.8s-.8.5-.8,1h0c0,.9.2,1.7.3,2.6,0,.5.4.8.9.8h0c.5,0,.8-.5.8-1-.2-.9-.3-1.8-.3-2.6M161.1,358c-.3-.3-.9-.3-1.2,0h0c-.3.3-.3.9,0,1.2.6.6,1.3,1.2,2,1.8.1.2.4.2.6.2s.5-.1.6-.3c.3-.3.3-.9,0-1.2h0l-2-1.8h0ZM124.4,304.9c-.2-.5-.7-.6-1.2-.5-.5.2-.6.7-.5,1.2.3.8.6,1.6,1,2.4,0,.3.5.5.8.5h.3c.5-.2.6-.7.5-1.2-.3-.9-.6-1.6-1-2.4M173.1,368c-.7-.5-1.4-1-2.1-1.6-.4-.3-.9-.2-1.2.2-.3.4-.2.9.2,1.2.7.5,1.4,1,2.1,1.6.2.1.3.2.5.2.3,0,.5-.1.7-.3.3-.4.2-1-.2-1.3M113.2,257.6c.5,0,.8-.4.8-.8h0c0-.9,0-1.7,0-2.6,0-.5-.4-.9-.9-.9s-.9.4-.9.9c0,.9,0,1.7,0,2.6,0,.6.4.9.9.9M151.9,348.8c-.3-.3-.9-.4-1.2,0-.3.3-.4.9,0,1.2.6.6,1.2,1.3,1.8,1.9.2.2.4.3.6.3s.4,0,.6-.2c.3-.3.4-.9,0-1.2-.6-.6-1.2-1.3-1.8-1.9M183.8,375.4c-.8-.5-1.5-.9-2.2-1.4-.4-.2-1-.1-1.2.3s-.1.9.3,1.2c.8.5,1.5.9,2.2,1.4.1.1.3.1.5.1.3,0,.6-.2.8-.4.2-.5.1-1-.3-1.2M136.2,328c-.2-.4-.8-.5-1.2-.3s-.5.8-.3,1.2c.5.8.9,1.5,1.4,2.2.2.2.5.4.8.4s.3,0,.5-.1c.4-.3.5-.8.2-1.2-.4-.7-.9-1.5-1.3-2.2M129.8,316.7c-.2-.4-.8-.6-1.2-.4s-.6.7-.4,1.2c.4.8.8,1.6,1.2,2.3.2.3.5.5.8.5s.3,0,.4-.1c.4-.2.6-.8.3-1.2-.3-.8-.8-1.5-1.2-2.3M143.6,338.7c-.3-.4-.8-.5-1.2-.2s-.5.8-.2,1.2c.5.7,1,1.4,1.6,2.1.2.2.4.4.7.3.2,0,.4,0,.5-.2.4-.3.5-.8.2-1.2h0c-.5-.7-1.1-1.4-1.6-2.1M113.2,244.5c.5,0,.9-.3.9-.8,0-.9,0-1.7,0-2.6,0-.5-.3-.9-.8-.9s-.9.3-.9.8c0,.9,0,1.7,0,2.6s.3.9.8.9M143.8,159.6c.2.1.3.2.5.2.3,0,.5-.1.7-.3.5-.7,1.1-1.4,1.6-2,.3-.4.2-.9-.1-1.2s-.9-.2-1.2.1c-.6.7-1.1,1.4-1.6,2.1-.3.3-.2.9.1,1.2M152.9,149.8c.2,0,.5-.1.6-.3.6-.6,1.2-1.3,1.8-1.9.3-.3.4-.9,0-1.2h0c-.3-.3-.9-.4-1.2,0h0c-.6.6-1.2,1.3-1.8,1.9-.3.3-.3.9,0,1.2h0c.1.2.3.3.5.3M409.1,248.8c-.5,0-.9.4-.9.9v2.9c0,.5.3.9.9.9s.9-.4.9-.9v-2.9c0-.5-.4-.9-.8-.9h0M121.1,201.7c-.5-.2-.9.1-1.1.5-.3.8-.6,1.7-.8,2.5-.2.5,0,.9.6,1.1h.3c.4,0,.7-.2.8-.6.3-.8.5-1.7.8-2.5,0-.5,0-.9-.6-1.1M365.2,146c.2.2.3.3.5.5s.4.2.6.2.5,0,.6-.2c.3-.3.4-.9,0-1.2h0l-.5-.5c-.5-.5-.9-.9-1.3-1.3-.3-.3-.9-.3-1.2,0h0c-.3.3-.4.9,0,1.2h0c.4.4.8.9,1.3,1.3M114.2,231.5h0c.4,0,.8-.3.9-.8,0-.9.2-1.7.3-2.6,0-.5-.2-.9-.8-1-.5,0-.9.2-1,.8l-.3,2.6c0,.5.2.9.8.9M117.4,214.3c-.5-.1-.9.2-1,.6h0c-.2.8-.4,1.7-.6,2.6,0,.5.2.9.6,1h.2c.4,0,.8-.3.9-.7.2-.9.4-1.7.6-2.6,0-.4,0-.9-.6-1M136.3,170.3c.2.1.3.1.5.1.3,0,.6-.1.8-.4.4-.7.9-1.5,1.4-2.2.3-.4.2-.9-.2-1.2s-.9-.2-1.2.2c-.5.7-1,1.4-1.5,2.2-.3.5-.2,1,.2,1.2M195.2,381.7c-.8-.4-1.6-.8-2.3-1.2-.4-.2-.9,0-1.2.3-.2.4,0,.9.3,1.2.8.4,1.6.8,2.3,1.2.1,0,.3.1.4.1.3,0,.6-.2.8-.5.2-.4,0-.9-.3-1.2M129.7,181.7c.1,0,.3.1.4.1.3,0,.6-.2.8-.5.4-.8.8-1.5,1.2-2.3.2-.4,0-.9-.3-1.2-.4-.2-.9,0-1.2.3-.4.8-.9,1.6-1.3,2.3-.2.4,0,.9.4,1.2M124.2,193.6h.3c.3,0,.6-.2.8-.5.3-.8.7-1.6,1-2.4.2-.5,0-.9-.5-1.2-.5-.2-.9,0-1.2.5l-1,2.4c-.2.4,0,.9.4,1.1h0M257.6,102.9h2.6c.5,0,.9-.4.9-.9s-.4-.9-.9-.9h-2.6c-.5,0-.9.4-.9.9s.4.9.9.9M343.7,128.2c.7.5,1.5,1,2.2,1.5.2.1.3.2.5.2.3,0,.5-.1.7-.3.3-.4.2-.9-.2-1.2-.7-.5-1.5-1-2.1-1.5-.4-.3-.9-.2-1.2.2-.3.3-.2.9.2,1.2M356.1,137.6c.2.1.3.2.6.2s.5-.1.6-.3c.3-.3.3-.9-.1-1.2-.7-.6-1.3-1.1-2-1.7-.3-.3-.9-.2-1.2.1-.3.4-.2.9.1,1.2.7.5,1.4,1.1,2,1.6M374.5,156.2c.2.2.4.3.7.3s.4,0,.6-.2c.4-.3.4-.8.1-1.2-.6-.7-1.1-1.3-1.7-2-.3-.4-.8-.4-1.2-.1-.4.3-.4.8-.1,1.2.5.7,1,1.3,1.6,2M207.1,387c-.8-.3-1.6-.6-2.4-1-.4-.2-1,0-1.2.5s0,.9.5,1.2c.8.4,1.6.7,2.4,1h.3c.4,0,.7-.2.8-.6.2-.5,0-.9-.4-1.1M332.6,121.4c.8.4,1.5.9,2.3,1.3.1,0,.3,0,.5,0,.3,0,.6-.2.8-.4.2-.4.1-1-.3-1.2-.8-.5-1.5-.9-2.3-1.3-.4-.2-.9,0-1.2.3-.3.4-.1.9.3,1.2M404.8,210.6c-.1-.5-.6-.7-1-.6h0c-.5.1-.7.6-.6,1,.2.8.5,1.7.6,2.5.1.4.5.6.9.6h.2c.5-.1.7-.6.6-1h0c-.2-.8-.5-1.7-.7-2.5M382.3,166.5c.2.2.4.3.7.3s.4,0,.5-.2c.4-.3.5-.8.2-1.2-.5-.7-1-1.5-1.5-2.2-.3-.4-.8-.5-1.2-.2-.4.3-.5.8-.2,1.2.5.8.9,1.5,1.5,2.1M406.4,226.4c0,.4.4.7.9.8h.1c.5,0,.8-.5.7-1-.1-.9-.3-1.7-.5-2.6,0-.5-.5-.8-1-.7-.5,0-.8.5-.7,1,.2.9.3,1.7.5,2.6M308.8,110.8c.8.3,1.6.6,2.4.9h.3c.4,0,.7-.2.8-.6.2-.4,0-.9-.5-1.1h0c-.8-.3-1.7-.6-2.5-.9-.5-.2-.9,0-1.1.5-.1.5.1.9.6,1.1M395.2,189.1c.2.3.5.5.8.5h.3c.5-.2.6-.7.4-1.2-.3-.8-.8-1.6-1.1-2.4-.2-.4-.8-.6-1.2-.4s-.6.8-.4,1.2c.3.8.7,1.6,1.1,2.3M389.2,177.5c.2.3.4.5.8.5s.3,0,.4-.1c.4-.2.6-.8.3-1.2-.4-.8-.9-1.5-1.3-2.3-.2-.4-.8-.5-1.2-.3-.4.2-.5.8-.3,1.2.5.6.9,1.4,1.3,2.2M400.7,198.1c-.2-.5-.7-.7-1.1-.5-.5.2-.7.7-.5,1.1.3.8.6,1.6.9,2.4.1.3.4.6.8.6h.3c.5-.2.7-.6.5-1.1-.2-.8-.6-1.6-.9-2.4M183.2,125c.2,0,.3,0,.5,0,.7-.5,1.4-.9,2.2-1.3s.5-.8.3-1.2c-.2-.4-.8-.5-1.2-.3l-2.3,1.4c-.4.2-.5.8-.3,1.2.3.2.5.3.8.3M206.5,113.3h.3c.8-.3,1.6-.6,2.4-.9.5-.2.7-.7.5-1.1-.2-.5-.7-.7-1.1-.5-.8.3-1.6.6-2.4.9-.4.2-.6.6-.5,1.1h0c0,.3.4.6.7.6M194.6,118.6c.1,0,.3,0,.4,0,.8-.4,1.6-.8,2.3-1.2.4-.2.6-.8.4-1.2-.2-.4-.8-.6-1.2-.4l-2.4,1.2c-.4.2-.6.7-.4,1.2.1.3.5.5.8.5M162.3,140.7c.2,0,.4,0,.6-.2.6-.6,1.3-1.2,2-1.7.4-.3.4-.8.1-1.2-.3-.3-.9-.4-1.2-.1-.6.6-1.3,1.2-2,1.7-.3.3-.4.9,0,1.2.1.2.3.3.6.3M172.4,132.4c.2,0,.4,0,.5-.2l2.1-1.6c.4-.3.5-.8.2-1.2s-.8-.5-1.2-.2c-.7.5-1.4,1-2.2,1.6-.4.3-.5.8-.2,1.2.2.2.5.3.8.3M283.5,104.5c.9,0,1.7.3,2.6.4h.2c.4,0,.8-.3.9-.7,0-.5-.2-.9-.7-1-.9-.2-1.7-.3-2.6-.4-.5,0-.9.2-1,.7h0c0,.4.2.9.7.9M296.3,107.1c.9.2,1.7.4,2.5.6h.2c.4,0,.8-.2.8-.6.1-.5-.2-.9-.6-1h0c-.9-.2-1.7-.5-2.6-.6-.5,0-.9.2-1,.6,0,.5.2.9.7,1M270.6,103.1c.9,0,1.7,0,2.6.2h0c.5,0,.8-.3.9-.8,0-.5-.3-.9-.8-.9l-2.6-.2c-.5,0-.9.3-.9.8s.3.9.8.9M231.6,105.8h.2c.9-.2,1.7-.3,2.6-.5.5,0,.8-.5.7-1,0-.5-.5-.8-1-.7-.9.2-1.7.3-2.6.5-.5,0-.8.6-.7,1s.5.6.9.6M244.5,103.8h.1c.9,0,1.7-.2,2.6-.3.5,0,.8-.5.8-.9s-.5-.8-.9-.8c-.9,0-1.7.2-2.6.3-.5,0-.8.5-.8,1h0c0,.4.3.8.8.8M218.9,109h.2c.8-.2,1.7-.5,2.5-.7.5,0,.8-.6.6-1-.1-.5-.6-.8-1-.6-.9.2-1.7.5-2.6.8-.5,0-.7.6-.6,1.1.2.3.5.5.9.5M320.9,115.5c.8.3,1.6.7,2.4,1.1h.3c.3,0,.6-.2.8-.5.2-.5,0-.9-.4-1.2-.8-.3-1.6-.8-2.4-1.1-.5-.2-.9,0-1.2.5-.2.4,0,.9.4,1.1h0M343.9,371.8c-.7.5-1.5,1-2.2,1.4-.4.3-.5.8-.2,1.2.2.2.5.4.8.4s.3,0,.5-.1c.8-.5,1.4-1,2.2-1.4.4-.3.5-.8.2-1.2-.3-.5-.9-.6-1.3-.3M321.2,384.4c-.8.3-1.6.7-2.4,1-.5.2-.6.7-.5,1.2.1.3.5.5.8.5h.3c.8-.3,1.6-.7,2.4-1,.5-.2.6-.7.5-1.2-.2-.5-.8-.6-1.2-.5M354.3,363.9c-.7.5-1.3,1.1-2,1.6-.4.3-.5.8-.2,1.1h0c.2.3.4.5.7.4.2,0,.4,0,.5-.2.7-.5,1.4-1.1,2-1.6.4-.3.4-.8.1-1.2-.3-.4-.8-.5-1.2-.2h0M332.8,378.6c-.8.4-1.5.8-2.3,1.3-.4.2-.6.8-.3,1.2.2.3.5.5.8.5s.3,0,.4-.1c.8-.4,1.6-.8,2.3-1.3.4-.2.6-.8.3-1.2-.3-.5-.8-.6-1.2-.3M364,355.3c-.6.6-1.2,1.2-1.9,1.8-.3.3-.4.9,0,1.2.2.2.4.3.6.3s.4,0,.6-.2c.6-.6,1.3-1.2,1.9-1.8.3-.3.4-.9,0-1.2h0c-.3-.4-.9-.4-1.2,0M395.3,312.6c-.4-.2-.9,0-1.2.4-.4.8-.8,1.6-1.2,2.3-.2.4,0,.9.4,1.2.1,0,.3.1.4.1.3,0,.6-.2.8-.5.4-.8.8-1.6,1.2-2.4s0-.9-.4-1.2M372.9,345.7c-.6.6-1.2,1.3-1.7,2-.3.3-.3.9,0,1.2h0c.1.2.4.2.6.2s.5-.1.6-.3c.6-.6,1.2-1.3,1.7-2,.3-.3.3-.9-.1-1.2-.3-.3-.9-.3-1.2,0M382.1,335.3c-.4-.3-.9-.2-1.2.2-.5.7-1,1.4-1.5,2.1-.3.4-.2.9.2,1.2.2.1.3.2.5.2.3,0,.5-.1.7-.3.5-.7,1-1.4,1.6-2.2.3-.3.2-.9-.2-1.2M389.2,324.3c-.4-.2-.9-.1-1.2.3-.5.8-.9,1.5-1.3,2.3-.2.4-.1.9.3,1.2.1,0,.3.1.5.1.3,0,.6-.2.8-.4.5-.8.9-1.5,1.3-2.3.3-.4.1-1-.3-1.2M244.9,396.3c-.9-.1-1.7-.2-2.6-.3-.5,0-.9.3-1,.8,0,.5.3.9.8,1,.9.1,1.7.2,2.6.3h.1c.4,0,.8-.3.9-.8.1-.5-.2-.9-.8-1M232.1,394.3c-.9-.2-1.7-.3-2.6-.5-.5-.1-.9.2-1,.6-.1.5.2.9.6,1,.9.2,1.7.4,2.6.5h.2c.4,0,.8-.3.9-.7.1-.4-.2-.9-.6-1M296.7,392.9c-.8.2-1.7.4-2.6.6-.5.1-.7.6-.6,1h0c.1.4.5.7.9.7h.2c.9-.2,1.7-.4,2.6-.6.5-.1.7-.6.6-1h0c-.1-.5-.6-.7-1-.6h0M219.4,391.3c-.8-.2-1.7-.5-2.5-.8-.5-.2-.9.1-1.1.6-.1.5.1.9.6,1.1.8.3,1.7.5,2.5.8h.2c.4,0,.7-.3.8-.6.2-.4,0-.8-.3-1h-.2M283.9,395.4c-.9.1-1.7.2-2.6.4-.5,0-.8.5-.8,1s.4.8.9.8h.1c.9-.1,1.7-.2,2.6-.4.5,0,.8-.5.8-1-.1-.5-.6-.8-1-.8M257.9,397.2h-2.6c-.5,0-.9.3-.9.8s.3.9.8.9h2.6c.5,0,.9-.4.9-.9.1-.5-.3-.9-.8-.9M270.9,396.9l-2.6.2c-.5,0-.8.4-.8.8h0c0,.5.4.8.9.8h0c.9,0,1.7-.1,2.6-.2.5,0,.9-.5.8-.9,0-.5-.4-.9-.9-.8M309.2,389.2c-.8.3-1.6.6-2.5.8-.4.2-.7.6-.6,1.1.1.3.4.6.8.6h.3c.8-.3,1.7-.5,2.5-.8.5-.2.7-.6.5-1.1-.1-.4-.6-.6-1-.5M404.3,288c-.5-.1-.9.2-1,.6-.2.8-.5,1.7-.7,2.5-.1.5.1.9.6,1.1h.2c.4,0,.7-.3.8-.6.2-.9.5-1.7.7-2.6.1-.5-.1-1-.6-1.1M407.7,236.7c0,.9.2,1.7.2,2.6s.4.8.9.8h0c.5,0,.8-.5.8-.9,0-.9-.1-1.7-.2-2.6,0-.5-.5-.8-.9-.8s-.9.5-.8.9M408.7,262.2c-.5,0-.9.3-.9.7h0c0,1-.2,1.8-.2,2.7s.3.9.8.9h.1c.4,0,.8-.3.9-.8.1-.9.2-1.7.2-2.6s-.3-.9-.8-1M400.3,300.5c-.5-.2-.9,0-1.1.5-.3.8-.6,1.6-.9,2.4-.2.5,0,.9.5,1.1h.3c.4,0,.7-.2.8-.6.3-.8.6-1.6.9-2.5.2-.3,0-.9-.5-1M407.1,275.3c-.5,0-.9.2-1,.7-.2.9-.3,1.7-.5,2.6-.1.5.2.9.7,1h.2c.4,0,.8-.3.9-.7.2-.9.3-1.7.5-2.6,0-.5-.3-.9-.8-1M398.1,250c0,36.6-14.2,71-40.1,96.8-25.8,25.9-60.2,40.1-96.8,40.1s-71-14.2-96.8-40.1c-25.8-25.8-40.1-60.2-40.1-96.8s14.2-71,40.1-96.8c25.8-25.8,60.2-40.1,96.8-40.1s71,14.2,96.8,40.1c25.8,25.8,40.1,60.2,40.1,96.7h1.7c0-37-14.4-71.8-40.6-98s-61-40.6-98.1-40.6-71.8,14.4-98,40.6-40.6,61-40.6,98,14.4,71.8,40.6,98,61,40.6,98,40.6,71.8-14.4,98-40.6,40.6-61,40.6-98h-1.7.1Z"/>
        <path class="st19" d="M143.6,207.1c-.5-.2-.9,0-1.1.5-3.8,10.6-6,21.6-6.8,32.9,0,.5.3.9.8.9h0c.5,0,.8-.3.9-.8.8-11.1,3.1-22,6.8-32.4.1-.5-.1-1-.6-1.1M385.8,248.8c-.5,0-.9.4-.9.9v.3c0,11-1.5,21.9-4.4,32.5-.1.5.2.9.6,1h.2c.4,0,.8-.2.8-.6,2.9-10.7,4.4-21.8,4.5-32.9v-.3c0-.5-.4-.9-.9-.9M368.8,312.7c-.4-.2-.9-.1-1.2.3-5.3,8.9-11.7,17.1-19,24.4l-1.5,1.5c-.3.3-.4.9,0,1.2h0c.2.2.4.3.6.3s.5,0,.6-.2l1.6-1.6c7.4-7.4,13.9-15.8,19.3-24.8.2-.4,0-.9-.3-1.2M139.3,273.7c-.1-.5-.5-.8-1-.7-.5.1-.8.5-.7,1,2.2,11,5.8,21.7,10.9,31.8.2.3.4.5.8.5s.3,0,.4-.1c.4-.2.6-.7.4-1.2-4.9-9.9-8.5-20.4-10.7-31.3M193.8,353.9c-7.3-4.7-14.1-10.2-20.3-16.3-1.7-1.7-3.3-3.4-4.9-5.2-.3-.3-.9-.4-1.2,0-.3.3-.4.9,0,1.2,1.6,1.8,3.3,3.5,5,5.2,6.3,6.2,13.1,11.8,20.6,16.6.2.1.3.1.5.1.5,0,.9-.3.9-.8s-.1-.6-.4-.8M256.4,373.6c-11.1-.4-22.1-2.3-32.6-5.6-.5-.1-.9.1-1.1.6-.1.5.1.9.6,1.1,10.7,3.4,21.9,5.3,33.1,5.7h0c.5,0,.9-.3.9-.8s-.3-1-.9-1M274.5,126.5c11,1.2,21.8,3.9,32.2,8h.3c.3,0,.7-.2.8-.5.2-.4,0-.9-.5-1.1-10.5-4.1-21.4-6.8-32.6-8.1-.5,0-.9.3-1,.8,0,.5.2.9.7.9M320.3,358.5c-9.7,5.3-20.1,9.3-30.9,11.8-.5.1-.8.6-.6,1,.1.4.5.7.9.7h.2c10.9-2.6,21.5-6.6,31.4-12,.4-.2.6-.8.3-1.2-.2-.5-.7-.6-1.2-.4M158.1,179c.2.1.3.2.5.2.3,0,.5-.1.7-.4,4.2-6,8.9-11.5,14-16.7,2.7-2.7,5.5-5.3,8.4-7.7.3-.3.4-.9.1-1.2-.3-.4-.8-.4-1.2-.1-3,2.5-5.8,5.1-8.5,7.8-5.2,5.2-9.9,10.9-14.2,16.9-.3.3-.2.9.2,1.2M335.5,150.6c4.7,3.5,9.2,7.4,13.3,11.6,3.7,3.7,7.1,7.6,10.2,11.7.2.2.4.4.7.3.2,0,.4,0,.5-.2.4-.3.5-.8.2-1.2-3.2-4.2-6.7-8.1-10.4-11.8-4.2-4.2-8.7-8.2-13.5-11.8-.4-.3-.9-.2-1.2.2-.2.4-.2.9.2,1.2M209.3,136.9h.3c10.1-4.6,20.8-7.8,31.7-9.5.5,0,.8-.5.7-1,0-.5-.5-.8-1-.7-11.1,1.7-21.9,5-32.2,9.6-.5.2-.6.7-.4,1.2.2.3.5.5.8.5M384.9,235.4h.1c.5,0,.8-.5.8-1h0c-1.3-11.2-4.2-22.1-8.5-32.5-.2-.5-.7-.6-1.2-.5-.5.2-.6.7-.5,1.2,4.2,10.3,7,21,8.4,32.1,0,.4.4.7.9.8M261.1,137c-31.2,0-59.4,12.7-79.9,33.2s-33.2,48.7-33.2,79.9,12.7,59.4,33.2,79.9,48.7,33.2,79.9,33.2,59.4-12.7,79.9-33.2,33.2-48.7,33.2-79.9-12.7-59.5-33.2-79.9c-20.4-20.4-48.7-33.2-79.9-33.2M372.4,250c0,30.7-12.5,58.5-32.6,78.6-20.1,20.2-48,32.6-78.6,32.6s-58.5-12.4-78.6-32.6c-20.2-20.1-32.6-48-32.6-78.6s12.5-58.5,32.6-78.6,48-32.6,78.6-32.6,58.5,12.5,78.6,32.6c20.2,20.2,32.6,47.9,32.6,78.6"/>
        <path class="st19" d="M301.9,340.1c-3.3,1.5-6.7,2.8-10.2,3.9-4.2,1.3-8.4,2.4-12.7,3.2-.5.1-.8.5-.7,1,0,.4.5.7.9.7h.2c4.4-.8,8.7-1.9,12.9-3.2,3.5-1.1,7-2.5,10.3-4,.5-.2.6-.7.5-1.2-.2-.4-.8-.6-1.2-.4M269.7,150c-2.9-.2-5.7-.3-8.6-.3-5.3,0-10.6.4-15.7,1.3-.5,0-.8.5-.7,1,0,.4.4.7.9.8h.1c5.1-.8,10.3-1.2,15.5-1.2s5.6.1,8.5.3c.5,0,.9-.3.9-.7h0c0-.5-.3-.9-.9-1M359.7,243.1c0,.5.4.8.9.8h0c.5,0,.8-.5.8-.9-.6-8.1-2.2-16.2-4.7-23.9-.2-.5-.6-.7-1.1-.6-.4.2-.7.6-.6,1.1,2.6,7.7,4.1,15.6,4.6,23.5M315.6,165.6c-6.8-4.4-14.2-8-21.9-10.6-.5-.2-.9.1-1.1.5-.2.5.1.9.5,1.1,7.6,2.6,14.8,6.1,21.6,10.4.2.1.3.1.5.1.3,0,.6-.1.8-.4.2-.3.1-.8-.3-1.1M333.1,181.2c-.3.3-.4.9,0,1.2,5.5,5.8,10.3,12.3,14.2,19.3.2.3.5.5.8.5s.3,0,.4-.1c.4-.2.6-.8.3-1.2-4-7.1-8.8-13.7-14.5-19.6-.3-.4-.8-.4-1.2,0M340.5,310.4c-.4-.3-.9-.2-1.2.2-2.6,3.3-5.3,6.4-8.2,9.3-2.7,2.7-5.6,5.3-8.7,7.7-.4.3-.5.8-.2,1.1h0c.2.3.4.5.7.4.2,0,.4,0,.5-.2,3.1-2.4,6-5.1,8.8-7.8,3-3,5.8-6.2,8.4-9.5.2-.5.2-1-.2-1.3M351.9,291.2h.4c.3,0,.6-.2.8-.5,3.3-7.5,5.7-15.3,7.1-23.3,0-.5-.2-.9-.7-1-.5,0-.9.2-1,.7-1.4,7.9-3.7,15.6-7,22.9-.2.4,0,.9.4,1.1h0M221.9,157.7c-7.6,3.2-14.6,7.3-21.1,12.2-.4.3-.5.8-.2,1.2.2.2.4.4.7.3.2,0,.4,0,.5-.2,6.4-4.8,13.4-8.8,20.7-12,.5-.2.6-.7.5-1.2-.1-.4-.6-.6-1.1-.5M209.7,334.3c-6.7-4.1-12.9-8.9-18.4-14.5-.1-.1-.3-.3-.4-.4-.3-.3-.9-.4-1.2,0h0c-.3.3-.4.9,0,1.2h0c.1.1.3.2.4.4,5.6,5.6,11.9,10.6,18.7,14.7.1,0,.3.1.5.1.3,0,.6-.2.8-.4.2-.4.1-.9-.3-1.2M163.8,230c-.5-.1-.9.2-1,.7-1.3,6.4-1.9,12.9-1.9,19.4h0c0,1.7,0,3.3.1,4.9,0,.5.4.8.9.8h0c.5,0,.8-.4.8-.8h0c0-1.6-.1-3.2-.1-4.8h0c0-6.4.6-12.8,1.9-19.1.1-.5-.2-1-.6-1M167.4,280.6c-.2-.7-.5-1.4-.6-2.1-.1-.5-.6-.7-1.1-.6s-.7.6-.6,1.1c.2.7.5,1.5.7,2.2,2.3,7.1,5.3,13.9,9.1,20.2.2.3.4.4.8.4s.3,0,.5-.1c.4-.2.5-.8.3-1.2-3.8-6.2-6.8-12.9-9-19.9M184.5,186.7c-.3-.3-.9-.2-1.2.1-5.1,6.4-9.5,13.3-12.9,20.7-.2.5,0,.9.4,1.2h.3c.3,0,.6-.2.8-.5,3.4-7.3,7.7-14.1,12.7-20.3.3-.3.3-.9-.1-1.2M255.1,348.7c-8-.5-15.9-2-23.6-4.4-.5-.2-.9.1-1.1.6-.1.5.1.9.6,1.1,7.8,2.4,15.8,3.9,24,4.5h0c.5,0,.8-.3.9-.8,0-.5-.3-.9-.7-.9h-.1"/>
      </g>
    </g>
  </g>
  <path class="st19" d="M347.6,293.7c.2.1-7.8-1-7.7-.9,0,0,.1,0,.2.1s.3.2.4.3h.1c.2.1.4.2.6.4h0c.4.2.9.4,1.3.6.2,0,.4.2.7.2s.4.1.7.2c.2,0,.5,0,.7.1h2.1l-.2,1.6c-.1,1.1-.3,2.2-.4,3.3l-.5,4.2-.5,4.2-.8,7.4-.5,4.1-.4,3.3c-.7.1-1.3.2-2,.3-.3,0-.7,0-1,.1h-6.5c-.3-.2-.7-.2-1-.3-.3,0-.6-.2-.9-.2s-.3,0-.5-.1c-.2,0-.3,0-.5-.2-1.1-.4-2.2-.8-3.3-1.3-.2,0-.4-.2-.6-.3-.2,0-.3-.2-.5-.3h0c-.4-.2-.8-.5-1.2-.7-.2,0-.3-.2-.5-.3-.9-.6-1.9-1.3-2.7-2h0c-.4-.3-.8-.6-1.2-1h0c-.4-.3-.7-.6-1-.9h-.1c-.4-.5-.7-.8-1.1-1.2s-.7-.8-1.1-1.2c-1.5-1.6-2.8-3.3-4.1-5.1-.3-.4-.5-.7-.8-1.1s-.5-.8-.8-1.1c-.3-.4-.5-.8-.8-1.2l-.8-1.2c-.3-.4-.5-.8-.8-1.2-.5-.8-1-1.7-1.5-2.5-.2-.4-.5-.9-.8-1.3s-.5-.9-.7-1.3-.5-.9-.7-1.4c-.3-.5-.6-1.1-.8-1.6-.7-1.2-1.3-2.5-1.9-3.8-.4-.9-.8-1.7-1.3-2.6-.3-.7-.7-1.4-1-2.1,0-.2-.2-.3-.2-.5-.4-.8-.8-1.7-1.2-2.6h0c-.4-1-.8-1.9-1.2-2.8-.9-2.1-1.9-4.2-2.8-6.3,0-.2-.2-.4-.3-.7-.4-.9-.8-1.9-1.3-2.8-2.8-6.3-5.6-12.6-8.5-18.7-3-6.2-6.1-12.2-9.5-17.7-2-3.2-4.1-6.3-6.3-9.1-1.6-2.1-3.4-4.1-5.2-5.9-4-4-8.4-7.3-13.4-9.6v-9.1c.1,0,2-6.1,2-6.1l4-13.3,1.8-6.1,1.8-6.1,1.2-4c.6.3,1.1.7,1.6,1,.2.2.5.3.7.5.4.3.9.6,1.3.9.2.2.4.3.6.4.5.4,1.1.7,1.6,1.1.5.3.9.7,1.3,1,.2.1.3.2.5.4.6.5,1.2.9,1.8,1.4.5.4,1,.8,1.5,1.2.2.2.5.4.7.6,1.4,1.2,2.8,2.5,4.2,3.8.4.4.8.8,1.2,1.2,1.3,1.3,2.5,2.6,3.7,3.9.4.4.8.9,1.2,1.3.6.7,1.1,1.3,1.7,2,.4.5.8,1,1.2,1.5.2.3.5.6.7.9.4.5.8,1,1.2,1.6.5.7,1.1,1.4,1.6,2.2,1.3,1.9,2.6,3.8,3.9,5.7,1.1,1.8,2.2,3.6,3.3,5.4.3.5.6,1,.8,1.5.2.4.4.8.7,1.2.6,1.1,1.2,2.1,1.8,3.2,0,.1.1.3.2.4.1.3.3.5.4.8.3.7.7,1.3,1,2,.2.4.4.8.6,1.2.3.6.6,1.2.9,1.9,2.1,4.4,4.1,8.8,6,13.2,3.5,8.4,6.6,16.8,9.5,24.6.1.4.3.8.4,1.1.5,1.5,1.1,2.9,1.6,4.4.5,1.4,1.1,2.8,1.6,4.2.3.8.6,1.5.9,2.3s.6,1.5.9,2.3c.3.7.5,1.3.8,2v.2c.3.7.6,1.4.9,2.1.1.3.3.7.4,1,.3.7.6,1.3.9,2h0c.1.4.3.7.4,1v.2c.3.6.6,1.2.9,1.7.3.6.6,1.2.9,1.8.1.3.3.6.4.9.6,1.2,1.1,2.3,1.7,3.4.6,1,1.2,1.8,1.8,2.6.8,1.1,1.8,2.1,2.8,3.1,3.8,3.5,10.9,5.3,11.2,5.6"/>
  <path class="st4" d="M309.5,227.1c-14.7,6.4-21.7,18.4-24.3,23.8-3-6.2-6.1-12.2-9.5-17.7l24.8-25.2c.1.3.3.5.4.8.3.7.7,1.3,1,2,.2.4.4.8.6,1.2.3.6.6,1.2.9,1.9,2.1,4.4,4.1,8.8,6,13.2"/>
  <path class="st2" d="M327.4,273.4c-17.6-.2-22.3,20.5-22.3,20.5-.7-1.2-1.3-2.5-1.9-3.8-.4-.9-.8-1.7-1.3-2.6-.3-.7-.7-1.4-1-2.1,0-.2-.2-.3-.2-.5-.4-.8-.8-1.7-1.2-2.6h0c-.4-1-.8-1.9-1.2-2.8-.9-2.1-1.9-4.2-2.8-6.3l24.2-20.3c.5,1.5,1.1,2.9,1.6,4.4.5,1.4,1.1,2.8,1.6,4.2.3.8.6,1.5.9,2.3s.6,1.5.9,2.3c.3.7.5,1.3.8,2v.2c.3.7.6,1.4.9,2.1.1.3.3.7.4,1,.3.7.6,1.3.9,2"/>
  <path class="st16" d="M345.3,308.2h-1.1c-7.4-.9-13-5-17.6-11-.9-1.2-1.7-2.3-2.5-3.6-4.8-7.5-8.4-17-12.2-26.8-1-2.6-2-5.3-3.1-7.9-15-37.8-32.1-64.8-52.2-78.8l1.8-6.1,1.8-6.1,1.2-4c.6.3,1.1.7,1.6,1,.2.1.5.3.7.5.4.3.9.6,1.3.9l.6.4c.5.4,1.1.7,1.6,1.1.4.3.9.7,1.3,1,.2.1.3.2.5.4.6.5,1.2.9,1.8,1.4.5.4,1,.8,1.5,1.2.2.2.5.4.7.6,1.4,1.2,2.8,2.5,4.2,3.8.4.4.8.8,1.2,1.2,1.3,1.3,2.5,2.6,3.7,3.9.4.4.8.9,1.2,1.3.6.7,1.1,1.3,1.7,2,.4.5.8,1,1.2,1.5.2.3.5.6.7.9.4.5.8,1,1.2,1.6,1.9,2.6,3.7,5.2,5.5,7.9.4.6.7,1.1,1.1,1.7.8,1.2,1.5,2.4,2.2,3.7.3.5.6,1,.9,1.5.2.4.4.8.7,1.2.6,1.1,1.2,2.1,1.8,3.2.2.4.4.8.6,1.2.3.7.7,1.3,1,2,.2.4.4.8.6,1.2.3.6.6,1.2.9,1.9,6.2,12.8,11.1,26,15.5,37.9l.4,1.2c.5,1.5,1.1,2.9,1.6,4.4.5,1.4,1.1,2.8,1.6,4.2.3.8.6,1.5.9,2.3s.6,1.5.9,2.3c.3.7.5,1.3.8,1.9v.2c.4.7.7,1.4,1,2.1.1.3.3.7.4,1,.3.7.6,1.4.9,2,.1.3.3.7.4,1v.2c.3.6.6,1.2.9,1.7.3.6.6,1.2.9,1.8.1.3.3.6.4.9.6,1.2,1.1,2.3,1.7,3.4.6,1,1.2,1.8,1.8,2.6.8,1.1,1.8,2.1,2.8,3.1,3.8,3.5,10.7,5.2,11,5.5.2.1-7.6-.9-7.4-.8,0,0,.1,0,.2.1s.3.2.4.3h0c.2.2.4.3.6.4h0c.2.1.4.2.7.3.2.1.4.2.7.3.2,0,.4.2.7.2s.4.1.7.2c.2,0,.5,0,.7.1h2.1l-.2,1.6c-.1,1.1-.3,2.2-.4,3.3l-.5,4.2-.5,4.2h.2Z"/>
  <path class="st16" d="M346.8,294.8h0Z"/>
  <path class="st16" d="M345.8,304h-.5c-6.7-.9-11.8-4.7-16-10.3-.9-1.2-1.7-2.3-2.4-3.6-4.3-7.1-7.7-16.1-11.3-25.8-1-2.6-2-5.3-3-7.9-15.1-39.1-32.8-67.3-54-82.4l1.8-6.1,1.2-4c.6.3,1.1.7,1.6,1,.2.1.5.3.7.5.4.3.9.6,1.3.9l.6.4c.5.4,1.1.7,1.6,1.1.4.3.9.7,1.3,1,.2.1.3.2.5.4.6.5,1.2.9,1.8,1.4.5.4,1,.8,1.5,1.2.2.2.5.4.7.6,1.4,1.2,2.8,2.5,4.2,3.8.4.4.8.8,1.2,1.2,1.3,1.3,2.5,2.6,3.7,3.9.4.4.8.9,1.2,1.3.6.6,1.1,1.3,1.7,2,.4.5.8,1,1.2,1.5.2.3.5.6.7.9.4.5.8,1,1.2,1.6.5.7,1.1,1.4,1.6,2.2,1.7,2.4,3.4,4.9,5,7.4.8,1.2,1.5,2.4,2.2,3.7.3.5.6,1,.8,1.5l.7,1.2c.6,1.1,1.2,2.1,1.8,3.2.2.4.4.8.6,1.2.3.7.7,1.3,1,2,.2.4.4.8.6,1.2.3.6.6,1.2.9,1.9,6.2,12.8,11.1,26,15.5,37.9.1.4.3.8.4,1.2.5,1.5,1.1,2.9,1.6,4.4.5,1.4,1.1,2.8,1.6,4.2.3.8.6,1.5.9,2.3s.6,1.5.9,2.3c.3.7.5,1.3.8,1.9,0,0,0,.2.1.2.3.7.6,1.4.9,2.1.1.3.3.7.4,1,.3.7.6,1.4.9,2,.1.3.3.7.4,1v.2c.3.6.5,1.2.8,1.7.3.6.6,1.2.9,1.8.1.3.3.6.4.9.6,1.2,1.1,2.3,1.7,3.4.6.9,1.2,1.8,1.8,2.6.8,1.1,1.8,2.1,2.8,3.1,3.8,3.5,10.3,5,10.6,5.3.2.1-7.2-.7-7-.6,0,0,.1,0,.2.1s.3.2.4.3h.1c.2.1.4.2.6.4h0c.2.1.4.2.7.3.2,0,.4.2.7.3.2,0,.4.2.7.2s.5.1.7.2c.2,0,.5,0,.7.1h2.1l-.2,1.6c-.1,1.1-.3,2.2-.4,3.3l-.5,4.2h0Z"/>
  <path class="st16" d="M346.8,294.8h0"/>
  <path class="st16" d="M346.3,299.8c-5.8-.8-10.2-4.1-13.9-9.1-.9-1.2-1.7-2.4-2.4-3.6-5.2-8.6-9-20.6-13.8-33.3-10.2-27.1-27.8-65.8-55.7-86l1.2-4c.6.3,1.1.7,1.6,1,.2.1.5.3.7.5.4.3.9.6,1.3.9l.6.4c.5.4,1.1.7,1.6,1.1.4.3.9.7,1.3,1,.2.1.3.2.5.4.6.5,1.2.9,1.8,1.4.5.4,1,.8,1.5,1.2.2.2.5.4.7.6,1.4,1.2,2.8,2.5,4.2,3.8.4.4.8.8,1.2,1.2,1.3,1.3,2.5,2.6,3.7,3.9.4.4.8.9,1.2,1.3.6.7,1.1,1.3,1.7,2,.4.5.8,1,1.2,1.5.2.3.5.6.7.9.4.5.8,1,1.2,1.6,1.9,2.6,3.7,5.2,5.5,7.9.4.6.7,1.1,1.1,1.7.8,1.2,1.5,2.4,2.2,3.7.3.5.6,1,.9,1.5.2.4.4.8.7,1.2.6,1.1,1.2,2.1,1.8,3.2.2.4.4.8.6,1.2.3.7.7,1.3,1,2,.2.4.4.8.6,1.2.3.6.6,1.2.9,1.9,6.2,12.8,11.1,26,15.5,37.9l.4,1.2c.5,1.5,1.1,2.9,1.6,4.4.5,1.4,1.1,2.8,1.6,4.2.3.8.6,1.5.9,2.3s.6,1.5.9,2.3c.3.7.5,1.3.8,1.9v.2c.4.7.7,1.4,1,2.1.1.3.3.7.4,1,.3.7.6,1.4.9,2,.1.3.3.7.4,1v.2c.3.6.6,1.2.9,1.7.3.6.6,1.2.9,1.8.1.3.3.6.4.9.6,1.2,1.1,2.3,1.7,3.4.6,1,1.2,1.8,1.8,2.6.8,1.1,1.8,2.1,2.8,3.1,3.8,3.5,10.7,5.2,11,5.5.2.1-7.6-.9-7.4-.8,0,0,.1,0,.2.1s.3.2.4.3h0c.2.2.4.3.6.4h0c.2.1.4.2.7.3.2.1.4.2.7.3.2,0,.4.2.7.2s.4.1.7.2c.2,0,.5,0,.7.1h2.1l-.2,1.6c-.1,1.1-.3,2.2-.4,3.3h-.1Z"/>
  <path class="st3" d="M343.6,322.9c-1.3.3-2.6.4-4,.5h-3.8c-.3,0-.7,0-1-.1-.2,0-.4,0-.6-.1-.4,0-.7-.2-1.1-.2s-.6-.1-.9-.2c-.3,0-.5-.1-.7-.2-.7-.2-1.4-.5-2-.7-.2,0-.4-.2-.7-.3-.5-.2-1-.4-1.4-.7-.6-.3-1.2-.6-1.8-1-.2-.1-.3-.2-.5-.3-.9-.6-1.9-1.3-2.7-2h0c-.4-.3-.8-.6-1.2-1h0c-.3-.3-.7-.6-1-.9h-.1c-.4-.5-.7-.8-1.1-1.2s-.7-.8-1.1-1.2c-.3-.3-.6-.6-.8-.9-1.1-1.3-2.2-2.7-3.3-4.1-.3-.4-.5-.7-.8-1.1s-.5-.8-.8-1.1c-.3-.4-.5-.8-.8-1.2-.3-.4-.5-.8-.8-1.2-.3-.4-.5-.8-.8-1.2-.5-.8-1-1.7-1.5-2.5-.3-.4-.5-.9-.8-1.3s-.5-.9-.7-1.3c-.3-.4-.5-.9-.7-1.4-.3-.5-.6-1.1-.8-1.6-.7-1.2-1.3-2.5-1.9-3.8-.4-.9-.8-1.7-1.3-2.6-.3-.7-.7-1.4-1-2.1,0-.2-.2-.4-.2-.5-.4-.9-.8-1.7-1.2-2.6h0c-.4-1-.8-1.9-1.2-2.8-1-2.3-2.1-4.7-3.1-7-.4-.9-.8-1.9-1.3-2.8-7.2-16.3-14.6-33.1-24.3-45.5-1.6-2.1-3.4-4.1-5.2-5.9-4-4-8.4-7.3-13.4-9.6v-9.1c.1,0,2-6.1,2-6.1l.8.6c7,5,13.6,12.1,19.5,20,1.4,1.8,2.7,3.7,3.9,5.5,10.1,14.8,18.2,31.7,23.8,45.2,12.1,28.9,24.8,52.3,43.6,50.9l-.5,4.1-.4,3.3h0l-.3-.7Z"/>
  <path class="st3" d="M343.6,322.9c-1.3.3-2.6.4-4,.5h-3.8c-.3,0-.7,0-1-.1-.2,0-.4,0-.6-.1-.4,0-.7-.2-1.1-.2s-.6-.1-.9-.2c-.3,0-.5-.1-.7-.2-.7-.2-1.4-.5-2-.7-.2,0-.4-.2-.7-.3-.5-.2-1-.4-1.4-.7-.6-.3-1.2-.6-1.8-1-.2-.1-.3-.2-.5-.3-.9-.6-1.9-1.3-2.7-2h0c-.4-.3-.8-.6-1.2-1h0c-.3-.3-.7-.6-1-.9h-.1c-.4-.5-.7-.8-1.1-1.2s-.7-.8-1.1-1.2c-.3-.3-.6-.6-.8-.9-1.1-1.3-2.2-2.7-3.3-4.1-.3-.4-.5-.7-.8-1.1s-.5-.8-.8-1.1c-.3-.4-.5-.8-.8-1.2-.3-.4-.5-.8-.8-1.2-.3-.4-.5-.8-.8-1.2-.5-.8-1-1.7-1.5-2.5-.3-.4-.5-.9-.8-1.3s-.5-.9-.7-1.3c-.3-.4-.5-.9-.7-1.4-.3-.5-.6-1.1-.8-1.6-.7-1.2-1.3-2.5-1.9-3.8-.4-.9-.8-1.7-1.3-2.6-.3-.7-.7-1.4-1-2.1,0-.2-.2-.4-.2-.5-.4-.9-.8-1.7-1.2-2.6h0c-.4-1-.8-1.9-1.2-2.8-1-2.3-2.1-4.7-3.1-7-.4-.9-.8-1.9-1.3-2.8-7.2-16.3-14.6-33.1-24.3-45.5-1.6-2.1-3.4-4.1-5.2-5.9-4-4-8.4-7.3-13.4-9.6v-9.1c6.2,4.2,12,10.2,17.5,17.2,1.5,1.9,2.9,3.8,4.3,5.8,9.9,14,18.3,30.7,24.4,44.9,11.6,26.8,25.4,54.3,47,52.3l-.4,3.3h0l-.4-.7Z"/>
  <path class="st16" d="M289.7,196.3c-.1,1.1-.9,1.8-1.8,1.5-.9-.2-1.5-1.3-1.4-2.4.1-1.1.9-1.8,1.8-1.5.9.2,1.5,1.3,1.4,2.4h0ZM293.6,240.5c-.2,1.4-1.2,2.4-2.4,2.2-1.1-.1-2-1.4-1.8-2.8.2-1.4,1.2-2.4,2.4-2.3,1.1.2,1.9,1.4,1.8,2.8M275.1,219.2c0,.5-.5.9-.9.8-.5,0-.8-.6-.7-1.2,0-.5.5-.9.9-.8.5,0,.8.6.7,1.1M321.2,270.5c-.1.9-.8,1.5-1.4,1.5s-1.1-.8-1-1.6.8-1.6,1.4-1.5c.7,0,1.1.8,1,1.6M310.8,283.6c0,.5-.4.9-.8.9s-.7-.4-.6-.9c0-.5.4-.9.8-.9s.7.4.6.9h0Z"/>
  <path class="st4" d="M343.6,322.9c-1,.2-2,.3-3,.4h-6.5c-.3,0-.7-.2-1-.2s-.6-.1-.9-.2c-.2,0-.3,0-.5-.1h-.3s-.2-.1-.2-.2c-.6-.2-1.2-.4-1.8-.7-.2,0-.4-.2-.7-.3-.3-.1-.6-.3-.8-.4-.2,0-.4-.2-.6-.3-.2,0-.3-.2-.5-.3h0c-.4-.2-.8-.5-1.2-.7s-.3-.2-.5-.3c-.2-.1-.4-.2-.6-.4-.5-.3-.9-.7-1.4-1-.3-.2-.5-.4-.8-.6h0c-.4-.3-.8-.6-1.2-1h0c-.4-.3-.8-.7-1.1-1l-1.1-1.1c-.4-.4-.7-.8-1.1-1.2-.3-.3-.6-.6-.8-.9-1.2-1.3-2.2-2.7-3.3-4.1-.3-.4-.5-.7-.8-1.1s-.5-.8-.8-1.2c-.3-.4-.5-.8-.8-1.2-.3-.4-.5-.8-.8-1.2-.8-1.2-1.6-2.5-2.3-3.8-.3-.4-.5-.9-.8-1.3s-.5-.9-.7-1.3c-.3-.4-.5-.9-.7-1.4-.3-.5-.6-1.1-.9-1.6-.6-1.2-1.3-2.5-1.9-3.8-.4-.9-.8-1.7-1.3-2.6-.3-.7-.7-1.4-1-2.1,0-.2-.2-.3-.2-.5-.4-.8-.8-1.7-1.2-2.6h0c-.4-1-.8-1.9-1.2-2.8-1-2.3-2.1-4.7-3.1-7-.4-.9-.8-1.9-1.3-2.8-7.2-16.3-14.6-33.1-24.3-45.5-1.6-2.1-3.4-4.1-5.2-5.9-4-4-8.4-7.3-13.4-9.6v-9.1c.1,0,2-6.1,2-6.1l4-13.3,1.8-6.1,1.8-6.1,1.2-4c.6.3,1.1.7,1.6,1,.2.1.5.3.7.5.4.3.9.6,1.3.9.2.2.4.3.6.4.5.4,1.1.7,1.6,1.1.4.3.9.7,1.3,1,.2.1.3.2.5.4.6.5,1.2.9,1.8,1.4.5.4,1,.8,1.5,1.2.2.2.5.4.7.6,1.4,1.2,2.8,2.5,4.2,3.8.4.4.8.8,1.2,1.2,1.3,1.3,2.5,2.6,3.7,3.9.4.4.8.9,1.2,1.3.6.7,1.1,1.3,1.7,2,.4.5.8,1,1.2,1.5.2.3.5.6.7.9.4.5.8,1,1.2,1.6.5.7,1.1,1.4,1.6,2.2,1.3,1.9,2.6,3.8,3.9,5.7.4.6.7,1.1,1.1,1.7.8,1.2,1.5,2.4,2.2,3.7.3.5.6,1,.8,1.5.2.4.4.8.7,1.2.8,1.5,1.6,2.9,2.4,4.4.3.7.7,1.3,1,2,.5,1,1,2,1.5,3.1,6.3,12.8,11.1,26,15.5,37.9.1.4.3.8.4,1.1.5,1.5,1.1,2.9,1.6,4.4.5,1.4,1.1,2.8,1.6,4.2.3.8.6,1.5.9,2.3s.6,1.5.9,2.3c.3.7.5,1.3.8,2v.2c.3.7.6,1.4.9,2.1.1.3.3.7.4,1,.3.7.6,1.4.9,2,.1.3.3.7.4,1v.2c.3.6.6,1.2.9,1.7.3.6.6,1.2.9,1.8.1.3.3.6.4.9.6,1.2,1.1,2.3,1.7,3.4.6,1,1.2,1.8,1.8,2.6.8,1.1,1.8,2.1,2.8,3.1,3.8,3.5,10.3,5,10.6,5.3.2.1-7.2-.7-7-.6,0,0,.1,0,.2.1s.3.2.4.3h0c.2.2.4.3.6.4h0c.2.1.4.2.7.3.2.1.4.2.7.3.2,0,.4.2.7.2.4.1.9.2,1.4.3h2.1l-.2,1.6c-.1,1.1-.3,2.2-.4,3.3l-.5,4.2-.5,4.2-.8,7.4-.5,4.1-.4,3.3v-.5Z"/>
  <path class="st0" d="M287.1,205.4c-1.1,2.9-2.6,5.6-4.4,8l-.5.6c-1.3,1.7-2.7,3.2-4.3,4.6-.3.3-.6.5-1,.8-1.2.9-2.8,2-4.4,2.9-1,.6-2.1,1.2-3.2,1.7-1.6-2.1-3.4-4.1-5.2-5.9-4-4-8.4-7.3-13.4-9.6v-9.1c.1,0,2-6.1,2-6.1l4-13.3,1.8-6.1,1.8-6.1,1.2-4c5.2,3.2,10.1,7,14.6,11.2.4.3.7.7,1.1,1l1.5,1.5c.8.8,1.6,1.7,2.4,2.5.4.4.8.8,1.1,1.2h0l1.1,1.3c.6.7,1.1,1.3,1.7,2,.5.6,1,1.2,1.5,1.8l.3.3c.5.6.9,1.2,1.4,1.8,0,0,.1.2.2.3.5.6.9,1.3,1.4,1.9,0,5.2-1,10.2-2.7,14.7"/>
  <path class="st1" d="M282,202c-.9,2.4-2.1,4.6-3.6,6.5l-.5.6c-1,1.4-2.2,2.6-3.5,3.8-.4.4-.9.7-1.3,1-2,1.5-4.3,2.7-6.7,3.4-.2,0-1.1.4-2.2.9-4-4-8.4-7.3-13.4-9.6v-9.1c.1,0,2-6.1,2-6.1l4-13.3,1.8-6.1,1.8-6.1,1.2-4c5.2,3.2,10.1,7,14.6,11.2.4.3.7.7,1.1,1l1.5,1.5c.8.8,1.6,1.7,2.4,2.5.4.4.8.8,1.1,1.2h0c.4.4.8.9,1.1,1.3.2.8.3,1.7.4,2.6h0v.4c.7,5.8,0,11.5-2,16.5"/>
  <g class="st18">
    <g>
      <path class="st19" d="M278.3,188.4v4.5h0c-.3,1.9-.7,3.7-1.4,5.5-.3.8-.6,1.5-1,2.2-.1.2-.2.4-.3.6-.2.4-.5.8-.7,1.2,0,.1-.2.3-.3.4-.1.2-.3.4-.4.6l-.4.6c-.8,1.1-1.7,2-2.7,2.9-.1.1-.3.2-.4.3-.2.1-.4.3-.5.4-.2.2-.4.3-.7.5h0c-.2.1-.4.3-.6.4,0,0-.2.1-.3.2-.2.1-.5.3-.7.4-.3.1-.6.3-.9.4-.6.3-1.3.5-2,.7-1.8.5-3.8.7-5.7.6-.4,0-.9,0-1.3-.1h-.3c-.4,0-.9-.1-1.3-.2h-.3c-.5-.2-1-.3-1.5-.5s-1-.3-1.4-.5c-1.5-.6-2.9-1.4-4.3-2.3-2.2-1.5-4.5-2.8-6.9-4-.3-.2-.7-.3-1-.5-1.3-.6-2.6-1.2-3.9-1.7-.3-.1-.7-.3-1-.4l-.5-.2c-.3,0-.5-.2-.8-.3-2.3-.9-4.7-1.6-7.1-2.2h-.2c-1.4-.3-2.8-.6-4.2-.9-4-.8-8.1-1.2-12.2-1.3-15.8-.5-32.1,3.5-45.4,11.4-3.9,2.3-7.6,5-10.8,8-3,2.8-5.7,5.7-8,8.9,0,0-.1.2-.2.3-1,1.5-2,3-2.9,4.6-3.5,6.4-5.3,13.4-5,20.9.1,3.8.8,7.6,2.1,11.6.1.4.2.7.4,1.1.1.3.2.7.3,1l.3.8c.1.4.3.8.5,1.1.2.4.3.8.5,1.2-.3-.5-.6-1-.9-1.5-19.5-31.5-17-60.8-1.1-82.4,15-20.3,40.3-31.4,66.3-32.8,12.1-.7,24.2.8,35.5,4.4h.3c.2.1.3.2.5.2s.4.1.5.2l1.2.4h.5c.5.3,1.1.5,1.6.7,3.8,1.4,7.5,3.1,11.1,5,.3.1.5.3.8.4.6.3,1.1.6,1.6.9.5.3,1,.6,1.4.9.6.4,1.2.7,1.8,1.1.5.3,1,.7,1.6,1,.5.3,1,.7,1.5,1.1.3.2.6.4.9.7.7.6,1.5,1.2,2.1,1.9.2.2.4.4.6.6.3.3.5.6.8.9.2.2.4.4.5.6.5.7,1,1.3,1.5,2,.3.5.6,1,.9,1.5.1.2.3.5.4.7.3.5.5,1,.8,1.5.1.3.2.5.3.8.2.5.4.9.6,1.4v.2c0,.2.2.5.3.7.3.7.5,1.4.7,2.2,0,.2.1.4.2.6,0,.2,0,.3.1.5.1.5.2,1.1.3,1.6,0,.4.1.8.2,1.2v.2c0,.9.2,1.8.2,2.6h0l-.2-.2Z"/>
      <path class="st16" d="M278.3,188.4v4.5h0c-45.7-40.5-151.8-31.2-139.5,56.6v.4h0c.2,3.8.8,7.6,2,11.2.1.4.2.7.3,1.1.1.3.2.7.4,1l.3.8c.1.4.3.8.5,1.1.2.4.3.8.5,1.2-.3-.5-.6-1-.9-1.5-19.5-31.5-17-60.8-1.1-82.4,15-20.3,40.3-31.4,66.3-32.8,12.1-.7,24.2.8,35.5,4.4h.3c.2.1.3.2.5.2s.4.1.5.2l1.2.4h.2c.3.1.6.2.9.3.3.1.7.3,1,.4.4.1.8.3,1.2.4.6.2,1.2.5,1.7.7.7.3,1.4.6,2.1.9h0c.7.3,1.4.7,2.2,1,.6.3,1.2.6,1.9.9.2.1.5.2.7.4.4.2.9.5,1.3.7.1,0,.3.2.4.2s.2.1.3.2c.6.3,1.1.6,1.6.9.5.3,1,.6,1.4.9.6.4,1.2.7,1.8,1.1.5.3,1,.7,1.6,1,.5.4,1,.7,1.5,1.1.3.2.6.4.9.7.7.6,1.5,1.2,2.1,1.9.2.2.4.4.6.6.3.3.5.6.8.9.2.2.4.4.5.6.4.5.8,1,1.1,1.4.1.2.3.4.4.6.3.5.6,1,.9,1.5.8,1.4,1.5,2.9,2.1,4.4v.2c0,.2.2.5.3.7.3.7.5,1.4.7,2.2,0,.2.1.4.1.6s.1.5.2.7c0,.5.2.9.3,1.4,0,.3.1.6.1,1v.5c.1.9.2,1.8.2,2.7"/>
      <path class="st16" d="M278.1,185.8h0c-.8-.9-1.7-1.8-2.6-2.6h-.1c-7.4-6.4-16.1-11-25.5-13.2-14.5-3.4-21.8-2.5-21.8-2.5,0,0,8.3-2.1,19.4,0-10.9-3.7-22.6-5.3-34.2-4-23.4,2.6-40.3,11.5-41.4,12.1,1.1-.8,18.7-12.6,42-15.2-14.5.1-28.1,3.1-40.1,9.2-18.7,9.5-31.7,27-36.4,48-.8,3.5-1.1,5.8-1.1,5.8,0,0-1.2-8.4-.2-15.5-5.2,11.8-3.7,37,6.6,58.4-.3-.5-.6-1-.9-1.5-19.5-31.5-17-60.8-1.1-82.4,15-20.3,40.3-31.4,66.3-32.8,12.1-.7,24.2.8,35.5,4.4h.3c.2.1.3.2.5.2.6.2,1.2.4,1.8.6h.5c.2,0,.4.2.7.2.3.1.7.3,1,.4.4.1.8.3,1.2.4.6.2,1.2.5,1.7.7.7.3,1.4.6,2.1.9h0c.7.3,1.4.7,2.2,1,.6.3,1.2.6,1.9.9.2.1.5.2.7.4.5.2.9.5,1.4.7.1,0,.3.2.4.2.7.4,1.3.7,2,1.1.5.3,1,.6,1.4.9.6.4,1.2.7,1.8,1.1.5.3,1,.7,1.6,1,.5.4,1,.7,1.5,1.1.3.2.6.4.9.7.7.6,1.5,1.2,2.1,1.9.2.2.4.4.6.6.3.3.5.6.8.9.6.7,1.1,1.4,1.6,2.1.1.2.3.4.4.6.3.5.6,1,.9,1.5.1.2.3.5.4.7.3.5.5,1,.8,1.5.1.3.2.5.4.8.2.5.4.9.6,1.4v.2c0,.2.2.5.3.7.3.7.5,1.4.7,2.2,0,.2.1.4.2.6,0,.2,0,.3.1.5v.2c.1.8.3,1.6.4,2.3v.5h-.3Z"/>
    </g>
  </g>
  <path class="st3" d="M275.6,200.7c-.5,1-1.1,1.9-1.8,2.8l-.5.6c-5.9,7.7-16.2,9-25,3-32.9-22.3-87.2-11.6-104.9,21.8,17.1-59.1,93.3-59.3,132.1-28.2"/>
  <path class="st3" d="M270.6,206.9c-6,5.1-14.7,5.3-22.3.2-23.6-16-58.6-16-86.4,2,4.1-5.7,14-13,18.8-15.5,0,0-5.6,4.1-8.2,7.3.2-.4,22.2-13.7,40.1-14.4-1.4.6-6.3,2.4-7.9,4,11.8-3.1,28.1-2.2,39.5.3-3.4-.7-11.9-.3-14,.7,18.6.9,37.6,13.4,40.4,15.4h0Z"/>
  <g class="st15">
    <path class="st16" d="M276.6,198.4c-15-45.6-56-47.6-69.8-48.8,13.8-.8,27.6,1.3,40.1,6,7.1,2.7,13.8,6.1,19.8,10.5,5.6,4,9.3,10.3,10.7,16.7.2.9.4,1.9.5,2.8v.2c.6,4.3,0,8.8-1.4,12.6h.1Z"/>
  </g>
  <path class="st16" d="M269,190.1c-.2,2-1.7,3.2-3.4,2.8-1.7-.4-3-2.4-2.8-4.4s1.7-3.3,3.5-2.8c1.7.5,2.9,2.5,2.7,4.4M321.8,308.6c-.2,1.1-1,2-1.8,2.1-.9,0-1.4-.8-1.3-1.9s1-2,1.8-2.1c.8,0,1.4.8,1.3,1.9"/>
  <path class="st9" d="M183.7,298.4c32.1-5,82.7-59.2,110.2-100.7,7.8-11.8,19.7-16.3,30.5-12.3l25.5,9.3c-37-4-104,105.9-166.2,103.7"/>
  <path class="st9" d="M325,203.9c-38.4,26.1-90.8,96.3-141.3,94.6,32.2-1.2,87.9-48.4,118.4-84.5,6.5-7.7,14.9-11.2,22.9-10.1"/>
  <path class="st3" d="M325,203.9c-1.8,1.2-3.6,2.5-5.3,3.8h0c-37.9,28.5-87.7,92.4-136,90.8,19.2-.7,47-18,72.4-39.1,1.2-1,19.4-19.9,19.4-19.9l-11.8,14.4s9.1-9.8,20.3-21.3c1-1,18.4-22,18.4-22-3.9,5.5-7.5,10.8-10,15.2,0,0,7-8.6,9.7-11.8.6-.8,8.8-10.9,16.5-12.7-2.7,1-6,4-8.1,6.8,4.5-4.2,8.9-5,14.5-4.2"/>
  <path class="st3" d="M319.7,207.7c-37.9,28.5-87.7,92.4-136,90.8,32.1-.5,88.7-46.2,119.8-81.3,4.8-5.4,10.5-8.6,16.3-9.4"/>
  <path class="st16" d="M349.8,194.7c-5.7-.6-12.3,1.6-19.5,5.8l-.4-.2c-10-4.7-21.7-1.4-30,9.1-29.7,37.6-84.1,86.8-116.3,89.1,32.1-5,82.7-59.2,110.2-100.7,7.8-11.8,19.7-16.3,30.5-12.3l25.5,9.3h0Z"/>
  <path class="st16" d="M349.8,194.7c-4.6-.5-9.6.8-15.1,3.5l-6.5-2.8c-10.3-4.4-22-.8-30.2,10.2-29,38.9-82.2,89.7-114.4,92.9,32.1-5,82.7-59.2,110.2-100.7,7.8-11.8,19.7-16.3,30.5-12.3l25.5,9.3h0Z"/>
  <path class="st16" d="M349.8,194.7c-3-.3-6.2.1-9.6,1.2l-13.9-5.5c-1.8-.7-3.6-1.2-5.5-1.4-10.2-.4-21.4,12-21.4,12,0,0,5.9-8.7,11-10.9-5.4,1.9-10.4,5.8-14.4,11.5-2.4,3.5-4.9,6.9-7.5,10.3-.8,1.1-14.2,20.2-14.2,20.2,0,0,3.3-5.8,6.2-10.1-6.6,8.1-13.5,15.9-20.7,23.5-1.8,1.9-10.6,12.3-18.6,19.9,3.1-3.4,5.7-7.1,6.6-9.1-22.1,21.1-46.4,39.8-64.1,42.1,32.1-5,82.7-59.2,110.2-100.7,7.8-11.7,19.7-16.3,30.5-12.3l25.5,9.3h0Z"/>
  <path class="st16" d="M327.9,197.2c-.2,1.4-1.3,2.3-2.3,2s-1.7-1.8-1.5-3.2c.2-1.5,1.3-2.4,2.3-2,1,.3,1.7,1.8,1.5,3.2M272.5,237.1c-.2,1.6-1.5,2.7-2.8,2.4-1.4-.2-2.3-1.7-2.2-3.3.2-1.6,1.5-2.7,2.9-2.5s2.3,1.7,2.1,3.3M221.1,284.5c0,.6-.6,1-1.1,1s-1-.4-1-1h0c0-.6.6-1,1.2-1s1,.4.9,1h0M254.1,254.4c0,.8-.7,1.3-1.4,1.2-.7,0-1.2-.7-1.1-1.5,0-.8.7-1.3,1.4-1.2.7,0,1.2.8,1.1,1.5M287.1,217.7c-.1.8-.7,1.3-1.4,1.2-.7-.1-1.1-.9-1-1.7s.7-1.3,1.4-1.2c.7.2,1.1.9,1,1.7M310.1,209.6c-.1.7-.7,1.2-1.2,1.1-.6-.2-1-.9-.8-1.6.1-.8.7-1.2,1.3-1.1.6.2.9.9.8,1.7h0ZM280.9,236.9c0,.4-.3.6-.6.6s-.5-.4-.5-.7.3-.6.6-.6.5.4.5.7h0ZM311.3,186.4c0,.4-.3.6-.6.5-.3,0-.4-.4-.4-.8s.3-.6.6-.5.4.4.4.8M257.6,176.2c0,.8-.7,1.2-1.3,1-.7-.2-1.1-1-1.1-1.7s.7-1.2,1.3-1c.7.2,1.1,1,1.1,1.7M219.2,176.7c0,1-.9,1.7-1.9,1.4s-1.8-1.3-1.7-2.4c0-1,.9-1.7,1.9-1.4s1.8,1.3,1.7,2.4M218.2,159.8c0,.5-.5.8-.9.7-.5-.1-.9-.7-.8-1.2,0-.5.5-.8.9-.7.5.2.8.7.8,1.2M249,189.6c-.1,1.4-1.3,2.3-2.6,2s-2.3-1.8-2.2-3.2c.1-1.5,1.3-2.4,2.6-2,1.3.3,2.2,1.8,2.1,3.2h0Z"/>
  <path class="st16" d="M258.4,205.4c0,.6-.5,1-1.1.9s-.9-.7-.9-1.3.5-1,1.1-.9c.5.1.9.7.9,1.3"/>
  <path class="st16" d="M151.9,207.7c0,1.1-1,1.7-2.2,1.6-1.2-.2-2.2-1.2-2.1-2.3,0-1.1,1-1.8,2.2-1.6s2.1,1.2,2.1,2.3M182.9,183.8c0,1.3-1.2,2-2.5,1.7s-2.4-1.6-2.3-2.8c0-1.3,1.2-2,2.5-1.7s2.3,1.6,2.3,2.8h0ZM191.2,158.6c0-.4.3-.6.7-.5s.6.5.6.8-.3.6-.7.5-.6-.5-.6-.8"/>
  <path class="st3" d="M346.8,294.8h0Z"/>
  <path class="st3" d="M343.6,322.9c-1,.2-2,.3-3,.4-1,0-2,.1-3,0h-2.6c-.3,0-.7-.1-1-.2-.3,0-.7-.1-1-.2-.9-.2-1.8-.5-2.7-.8-.3,0-.5-.2-.8-.3,0,0-.2,0-.3-.1-.2,0-.4-.2-.6-.3-2.2-1-4.4-2.4-6.4-4-.8-.6-1.6-1.3-2.4-2.1l-1.1-1.1c-.4-.4-.7-.8-1.1-1.2.1-3.9.9-7.8,2.4-11.7.9-2.4,2.1-4.7,3.5-6.9l.4-.6s0-.1.1-.2c.8-1.2,1.7-2.4,2.7-3.5.1-.1.2-.3.4-.4.8-.9,1.7-1.8,2.6-2.6,1-.9,2.1-1.7,3.2-2.3.1.2.3.3.5.3.9,1.2,1.9,2.2,2.8,3.1,3.8,3.5,9.7,4.8,10,5.1.2.1-6.6-.5-6.4-.4,0,0,.1,0,.2.1s.3.2.4.3h0c.2.2.4.3.6.4s.4.2.7.3c.2.1.4.2.7.3.2,0,.4.2.7.2s.5.1.7.2c.2,0,.5,0,.7.1h2.1l-.6,4.9-.5,4.2-.5,4.2-.8,7.4-.5,4.1-.4,3.3h.3Z"/>
  <path class="st0" d="M346.8,294.8h0"/>
  <path class="st0" d="M343.6,322.9c-1,.2-2,.3-3,.4-1,0-2,.1-3,0h-2.6c-.3,0-.7-.1-1-.2-.3,0-.7-.1-1-.2-.9-.2-1.8-.5-2.7-.8-.3,0-.5-.2-.8-.3,0,0-.2,0-.3-.1-.2,0-.4-.2-.6-.3-2.2-1-4.4-2.4-6.4-4-.1-.7-.3-1.4-.3-2.2h0v-.2c-.3-3.9.3-8.1,1.9-12.2.7-1.9,1.6-3.7,2.7-5.5h0l.3-.6c.7-1.1,1.5-2.1,2.3-3.1.9-1.1,1.9-2.1,3-2.9.8-.7,1.7-1.2,2.6-1.7l1.5-.8c3.8,3.5,9.3,4.7,9.6,4.9.2.1-6.2-.3-6-.2,0,0,.1,0,.2.1s.3.2.4.3h.1c.2.1.4.2.6.4h0c.2.1.4.2.7.3s.4.2.7.3c.2,0,.4.2.7.2s.5.1.7.2c.2,0,.5,0,.7.1h2.1l-.6,4.9-.5,4.2-.5,4.2-.8,7.4-.5,4.1-.4,3.3h.2Z"/>
  <path class="st19" d="M404.3,264.3v.2h0v.6h0c-1.5,12.9-7.5,24.4-15.3,34.1-6.3,7.8-12.9,13.4-20.9,17.6h0c-.3.2-.6.3-.9.5-1.6.8-3.3,1.6-5,2.3h-.2c-.2,0-.4.2-.6.3h0c-3.6,1.4-7,2.4-10.4,3.1-2.6.5-5.2.8-7.9,1h-3.9c-.6,0-1.2-.1-1.8-.2-.8-.1-1.7-.3-2.5-.5h-.3c-.4-.2-.9-.3-1.3-.5h-.4c0-.1-.4-.2-.4-.2-.3,0-.5-.2-.8-.3h-.2.2-.1c-.2,0-.3-.2-.4-.3h0c-.6-.5-1.1-.9-1.5-1.4h0c-1.2-1.5-1.8-3.3-2.4-5.3h0v-.4c0-.2-.1-.4-.1-.6v-.4h0v-.5h0v-.2h0v-1.2h0v-.3c0-.5,0-.9.1-1.3h0c0-.5.1-1,.2-1.5,0-.2,0-.4.1-.6.3-1.4.7-2.8,1.3-4.1.2-.6.5-1.2.9-1.7.4-.8,1-1.6,1.5-2.3,0,0,.1-.2.2-.3h0v-.2c.2,0,.3-.2.3-.2h0c.1-.1.2-.3.3-.4.2-.2.4-.4.6-.7.4-.4.8-.8,1.1-1.2h0l.5-.5c.4-.3.8-.7,1.2-1,0,0,.1,0,.2-.1,0,0,.2-.1.3-.2.1,0,.3-.2.4-.2h.4c.1,0,.2-.1.3-.2h.2c0-.1.4-.3.4-.3.2,0,.4-.2.6-.3.2,0,.3-.1.5-.2,1-.4,2.1-.7,3.2-.9h.2c1.2-.2,2.5-.1,3.7.1h.4c0,.1.2.1.2.1h.2c0,.1.3.1.3.1h0c.2.1.3.2.5.3.1,0,.3.1.4.2h.1s.2,0,.2.1c.3.1.6.3.8.4.1,0,.2.1.3.2.1,0,.3.1.4.2h.2c.3.1.5.2.8.3.4.1.7.3,1.1.4h.1c.1,0,.3.1.4.2h0l.5.2c.1,0,.2,0,.4.1.4.1.8.2,1.2.3h1c.1,0,.2,0,.4.1h.4c.3,0,.7.1,1,.2.3,0,.7.1,1,.2.4,0,.9.1,1.3.2,2.1.2,4.2.2,6.3,0,3-.3,6-1,8.9-1.9.2,0,.4-.1.6-.2.6-.2,1.2-.5,1.8-.7.2-.1.5-.2.7-.3h.2c3.2-1.4,6.3-3.1,9.1-5.1,1.1-.8,2.3-1.7,3.3-2.6.6-.5,1.2-1,1.8-1.6.1-.1.3-.2.4-.4.2-.1.3-.3.5-.4,0,0,.2-.2.3-.2s.2-.2.3-.3c4.5-4.3,7.6-8.9,9.5-14.8,0-.3.2-.5.2-.8s0-.3.1-.4v-.3l.2-.3h0c.2-.8.4-1.5.5-2.3"/>
  <path class="st16" d="M404.3,264.4h0v.6h0v.4c0,.3,0,.6-.2.9,0,.3-.1.6-.2.9h0c-.1.6-.2,1.2-.4,1.8,0,.3-.1.6-.2.9-.2.6-.3,1.2-.5,1.8,0,.3-.2.6-.3.9,0,.2-.2.5-.2.7s0,.3-.1.4h0c0,.3-.2.6-.3.9v.4c-.2.1-.2.3-.3.4-.1.3-.2.6-.3.8-5.9,15.9-18.8,32.1-34.2,41-6.9,4-14.3,6.6-21.8,7h-1.3c-1.7,0-3.4,0-5.1-.2h0c-.3,0-.6,0-.9-.1-.3,0-.7,0-1-.2-.9-.2-1.8-.3-2.7-.6h0c-.7-.2-1.4-.4-2.1-.6-.3,0-.6-.2-.8-.3h-.1c-.2,0-.3-.2-.4-.3h0c-.6-.5-1.1-.9-1.5-1.4h0c-1.2-1.5-1.8-3.3-2.4-5.3-.1-.7-.2-1.5-.2-2.2v-2.8h0v-.8c0-.5.1-1,.2-1.5h0c1.1.7,2.1,1.3,3.3,1.9.1,0,.2.1.4.2,1,.5,2.1,1,3.1,1.4,26.2,9.7,58.7-16.4,68.7-39.2h0c.6-1.4,1.1-2.8,1.5-4.3,0-.2,0-.3.1-.4v-.3c.3-.8.5-1.6.7-2.5h0l-.5-.3Z"/>
  <path class="st16" d="M404.3,264.5v.6h0v.4c0,.3,0,.6-.2.9,0,.3-.1.6-.2.9h0c-.1.6-.2,1.2-.4,1.8,0,.3-.1.6-.2.9-.1.6-.3,1.2-.5,1.8,0,.3-.2.6-.3.9,0,.2-.2.5-.2.7s0,.3-.1.4h0c0,.3-.2.6-.3.9v.4c-.2.1-.2.3-.3.4-.1.3-.2.6-.3.8-5.7,15.6-18.3,31.5-33.3,40.5h0c-7.2,4.3-14.9,7.1-22.8,7.5h-1.3c-1.6,0-3.2,0-4.7-.2h-.8c-.5,0-1-.1-1.6-.2-.9-.2-1.8-.4-2.7-.6-.6-.2-1.2-.3-1.8-.5-.7-.2-1.4-.5-2-.9h0c-.6-.4-1.1-.8-1.5-1.3h0c-1.2-1.5-1.8-3.3-2.4-5.3h0v-.4c0-.2-.1-.4-.1-.6v-.4h0v-.5h0v-.2h0c.5.4,1,.8,1.5,1.1h.1c.6.4,1.2.7,1.9,1.1,1.1.5,2.3.9,3.5,1.1.3,0,.5.1.8.2,3,.6,6.1.6,8.3.3,5.5-.7,7.8-1.2,12.4-2.7-3.5,1.7-7.2,2.8-10.8,3.6,5.1,0,13-2,17.1-3.6,7.4-2.9,12-5.6,17.9-9.9-5.6,4.9-11.6,8.6-18.3,11.5,6.2-2,11.7-4.6,16.8-8.6,7.3-5.8,13.2-13.7,18.2-21.3.8-1.3.8-1.2,1.5-2.4-.9,2.1-1.9,4.1-2.9,6.1,5.3-7.3,8.5-15.9,10.2-24.7h0l-.2-.5Z"/>
  <path class="st3" d="M396.3,280.7c-13.3,17.7-38.6,32.9-60.8,24.6-2.4-.9-4.7-2-6.8-3.4.4-.8,1-1.5,1.5-2.3l.3-.3h0s.1-.1.1-.2c0,0,.1-.2.2-.2h0c1.4-1.8,3.1-3.4,5-4.5l.3-.2h.3c.1-.2.2-.3.4-.3.3-.2.7-.3,1-.5,1-.4,2.1-.7,3.2-.9h.2c1.2-.2,2.5-.1,3.7.1h.2c.5.1,1,.3,1.5.5h.5c.1,0,.3.1.4.2l.6.3c.5.3,1.1.5,1.6.7.1,0,.3.1.4.2,2.2.9,4.5,1.6,6.9,2,.3,0,.7.1,1,.2.4,0,.9.1,1.3.2.7,0,1.4.1,2.2.1,1.5,0,3,0,4.4-.2,2.5-.3,5-.8,7.4-1.5h.3c1.1-.4,2.3-.8,3.4-1.2l.7-.3h.2c2.7-1.3,5.2-2.7,7.7-4.3h0c2.1-1.4,4.2-3,6.1-4.7.1-.1.3-.2.4-.4l.4-.4c.2-.1.3-.3.5-.4,0,0,.2-.2.3-.2l.3-.3c.9-.8,1.7-1.7,2.6-2.6"/>
  <path class="st3" d="M332.8,296.7c4.1-3.8,9.7-5.6,14.8-3,13.6,7,27.6,3.1,39.5-5-2.6,2.8-5.5,5.3-8.6,7.6,1.3-1.2,2.6-2.4,3.8-3.7-4.8,4-11,7.7-17,9.4,1.4-.8,2.8-1.6,4-2.7-6.5,2.8-13.9,3.6-20.9,4,2.9-.4,5.9-1,8.6-2.3-8.1,1-17.1,0-24.2-4.2h0Z"/>
  <path class="st16" d="M362,319.7l-.8.3h0c-3.4,1.3-6.9,2.4-10.4,3.1h-.1c-2.5.6-5.1.9-7.7,1h-4.8c-.3,0-.6,0-1-.1-.8-.1-1.7-.3-2.5-.5h-.3c-.1,0-.3,0-.4-.1h-.2c-.5-.2-1-.3-1.4-.5-.5-.2-1.1-.4-1.6-.7h0c-.6-.5-1.1-.9-1.5-1.4h0c-1.2-1.5-1.8-3.3-2.4-5.3h0v-1.4h0v-.5h0v-.2h0v-1.2h0v-.3c0-.5,0-.9.1-1.3h0v-.8c0-.5.2-.9.3-1.4.3-1.4.7-2.7,1.3-4.1h0c.6,2.2,1.2,4.2,2,5.9,0,.2.2.4.3.6.9,2,1.9,3.6,3,5,.3.3.6.7.8,1,6.4,7,16.1,6.4,27.9,3.4h.1"/>
  <path class="st3" d="M341,292.6c-1.1.2-2.3.5-3.5,1,1.2-.5,2.4-.8,3.5-1"/>
  <path class="st3" d="M367.6,297c-3.6,2.2-8.2,3.8-12.7,4.7h0c-2,.4-4,.6-6,.7h-3c-1.7-.1-3.2-.4-5.1-.7-.3,0-.3-.1-.6,0-2,.4-3.6,1.9-4.8,3.7-.7,1.1-1.2,2.2-1.6,3.3-.3.8-.5,1.7-.7,2.5-.1.7-.2,1.3-.2,2v2.9c0,.7.2,1.4.4,2.1.6,2.1,1.7,4,3.3,5.6h0c-.8,0-1.7-.3-2.5-.5h-.3c-.1,0-.3,0-.4-.1h-.2c-.1,0-.2-.1-.4-.2-.1,0-.2,0-.4-.1-.1,0-.2,0-.4-.1-.1,0-.3,0-.4-.1-.3,0-.5-.2-.8-.3h-.1c-.2,0-.3-.2-.4-.3h0c-.3-.3-.5-.5-.7-.7-.2-.1-.3-.3-.5-.4l-.4-.4h0c-1.2-1.5-1.8-3.3-2.4-5.3h0v-1.4h0v-.5h0v-.2h0v-1.2h0v-.3c0-.5,0-.9.1-1.3h0c0-.5.1-1,.2-1.5.3-1.6.8-3.2,1.4-4.7h0c.2-.6.5-1.2.9-1.7.5-.8,1-1.6,1.5-2.3,0,0,.1-.2.2-.3h0s0-.1.1-.2l.2-.2h0c.1-.1.2-.3.3-.4.2-.2.4-.4.6-.7.4-.4.8-.8,1.1-1.2.2-.2.4-.3.5-.5.4-.3.8-.7,1.2-1,0,0,.1,0,.2-.1,0,0,.2-.1.3-.2.1,0,.3-.2.4-.2h.4c.1,0,.2-.1.3-.2h.3c.1-.2.2-.3.4-.3.3-.2.7-.3,1-.5,1-.4,2.1-.7,3.2-.9h.2c1.2-.2,2.5-.1,3.7.1h.6c0,.1.2.1.2.1h.3c.2,0,.4.1.5.2.1,0,.3.1.4.2h.2s.2,0,.2.1c.3.1.6.3.8.4.1,0,.2.1.3.2.1,0,.3.1.4.2h.2c.1,0,.2.1.4.2.1,0,.3.1.4.2.2.1.5.2.7.3h.4v.2h.6c0,.1,0,.2.1.2h.7l.6.2h0c.2,0,.4.1.6.2h1.6l.4.2c.3,0,.7.1,1,.2.3,0,.7.1,1,.2.4,0,.9.1,1.3.2.7,0,1.5.1,2.2.1h.6c-.5,0-1,0-1.5-.1h7.1"/>
  <path class="st3" d="M361.5,297.3h-.2c-5.5.9-9.5,1.4-14.8.7-1.4-.2-2.7-.4-4.1-.7-1.8-.4-3.6.2-5.3,1.3-1.8,1.2-3.3,3.1-4.6,5.3-1.3,2.2-2.2,4.7-2.6,7.2-.2,1.2-.3,2.5-.3,3.8s0,1,.1,1.4c.4,2.7,1.6,5,4,6.5.1,0,.3.2.4.3h.1s.1,0,.2.1h-.3c-.3,0-.6-.2-1-.3-.1,0-.2,0-.4-.1-.1,0-.2,0-.4-.1-.1,0-.3,0-.4-.1-.3,0-.5-.2-.8-.3h-.1c-.2,0-.3-.2-.4-.3h0c-.3-.3-.5-.5-.7-.7-.2-.1-.3-.3-.5-.4l-.3-.3h0c-1.2-1.5-1.8-3.3-2.4-5.3h0v-1.4h0v-.5h0v-.2h0v-1.2h0v-.3c0-.5,0-.9.1-1.3h0c0-.5.1-1,.2-1.5.3-1.6.8-3.2,1.4-4.7h0c.2-.6.5-1.2.9-1.7.5-.8,1-1.6,1.5-2.3,0,0,.1-.2.2-.3h0s0-.1.1-.2l.2-.2h0c.1-.1.2-.3.3-.4.2-.2.4-.4.6-.7.4-.4.8-.8,1.1-1.2.2-.2.4-.3.5-.5.4-.3.8-.7,1.2-1,0,0,.1,0,.2-.1,0,0,.2-.1.3-.2.1,0,.3-.2.4-.2h.4c.1,0,.2-.1.3-.2h.3c.1-.2.2-.3.4-.3.3-.2.7-.3,1-.5,1-.4,2.1-.7,3.2-.9h.2c1.2-.2,2.5-.1,3.7.1h.6c0,.1.2.1.2.1h.3c.2,0,.4.1.5.2.1,0,.3.1.4.2h.1s.2,0,.2.1c.3.1.6.3.8.4.1,0,.2.1.3.2.1,0,.3.1.4.2h.2c.1,0,.2.1.4.2.1,0,.3.1.4.2.2.1.5.2.7.3h.4v.2h.6c0,.1,0,.2.1.2h.7c.2,0,.4.1.6.2h0c.2,0,.4.1.6.2h1.6l.4.2c.3,0,.7.1,1,.2.3,0,.7.1,1,.2.4,0,.9.1,1.3.2.7,0,1.5.1,2.2.1"/>
  <path class="st16" d="M332,308.2c.2-1.4,1.2-2.5,2.2-2.6,1,0,1.7,1,1.5,2.3s-1.2,2.5-2.2,2.6c-1,0-1.7-1-1.5-2.3"/>
  <path class="st9" d="M383.5,235.3c-13.1.3-44.9,39.3-66.5,74.5-6.6,10.8-17.2,18-28.1,18.8l-32.8,2.6c44.8-10.8,99.8-105.1,127.3-95.9"/>
  <path class="st9" d="M287.7,313.3c36.1-29.7,74.6-85.1,95.8-78-12.7-2.4-47.6,31-73,63.7-6,7.8-14.2,12.9-22.8,14.3"/>
  <path class="st3" d="M287.7,313.3c1.9-1.6,3.8-3.2,5.7-4.8h0c34.4-30.4,70.1-79.9,90.1-73.1-7.2-1.4-21.3,8.5-37,23.5-.8.8-14,16.2-14,16.2l8.8-11.9s-6.7,8-15.4,18.1c-.8.9-15.8,20.6-15.8,20.6,3.5-5.2,6.6-10.1,8.9-14.1,0,0-6.2,8.2-8.6,11.3-.6.8-8.2,11-15.8,14.6,2.8-1.6,6-5,8-7.9-4.4,4.7-8.9,6.6-14.9,7.6"/>
  <path class="st3" d="M293.3,308.4c34.4-30.4,70.1-79.9,90.1-73.1-12.6-3-48.1,29.3-74.2,61.3-4.5,5.5-10,9.5-15.9,11.8"/>
  <path class="st16" d="M256.1,331.2c8.3-2,16.8-6.8,25.4-13.2h.5c11.2.7,22.6-5.4,30.1-15.8,24.3-33.5,58.5-68.6,71.3-67-13.1.3-44.9,39.3-66.5,74.5-6.6,10.7-17.2,18-28.1,18.8l-32.8,2.6h0Z"/>
  <path class="st16" d="M256.1,331.2c6.6-1.6,13.4-5,20.3-9.5h7.9c11.1.2,22.2-6.3,29.4-16.8,23.4-34.2,56.8-70.6,69.7-69.6-13.1.3-44.9,39.3-66.5,74.5-6.6,10.7-17.2,18-28.1,18.8l-32.8,2.6h.1Z"/>
  <path class="st16" d="M256.1,331.2c4.4-1.1,8.8-2.9,13.3-5.4l17.1-.6c2,0,4-.3,5.9-.8,10-3.1,20-15.7,20-15.7,0,0-5.2,8.2-9.8,11.4,4.9-3.1,9.3-7.4,12.7-12.7,2-3.2,4.1-6.3,6.3-9.4.7-1,11.3-17.4,11.3-17.4,0,0-2.6,4.8-4.9,8.4,4.9-6.7,10-13.2,15.2-19.6,1.3-1.5,7.2-9.4,12.2-15-1.9,2.5-3.7,5.2-4.4,6.6,13.3-14.7,25.6-26,32.4-25.8-13.1.3-44.9,39.3-66.5,74.5-6.6,10.7-17.2,18-28.1,18.8l-32.8,2.6h0Z"/>
  <path class="st16" d="M284.6,320c.2-1.3,1.3-2.5,2.5-2.5s1.9,1,1.7,2.3c-.2,1.3-1.3,2.4-2.5,2.5-1.2,0-2-.9-1.8-2.3M334.4,276.6c.2-1.2,1.2-2.2,2.1-2.1.9,0,1.4,1.1,1.2,2.4-.2,1.2-1.1,2.2-2,2.1-.9,0-1.5-1.1-1.2-2.4M367.1,241.5c0-.4.4-.7.6-.6.3,0,.4.4.3.8,0,.4-.4.7-.6.6s-.4-.4-.3-.8M347.3,262.6c.1-.6.5-1,.9-.9.4,0,.6.6.5,1.1-.1.6-.5,1-.9.9-.4,0-.6-.6-.5-1.1h0ZM322.9,293.3c.1-.6.6-1.1,1.1-1.1s.8.5.7,1.2c-.1.6-.6,1.1-1.1,1.1s-.8-.5-.7-1.2M303,304.4c.1-.7.6-1.2,1.2-1.2s.9.5.8,1.2-.6,1.2-1.2,1.2-.9-.5-.8-1.2M325.8,276.1c0-.3.2-.5.5-.5s.4.3.3.5c0,.3-.3.5-.5.5s-.4-.2-.3-.5M299.8,322.5c0-.3.3-.5.5-.6.2,0,.4.2.4.5s-.3.6-.5.6-.4-.2-.4-.5M338.2,314.4c0-.5.4-.9.8-.9s.6.3.5.8c0,.5-.4.9-.8.9s-.6-.3-.5-.8M356.6,306.5c0-.6.5-1.1.9-1.1s.6.4.5,1c0,.6-.5,1.1-.9,1.1s-.6-.4-.5-1M356,315.2c0-.3.2-.5.4-.5s.3.2.3.5-.2.5-.4.5-.3-.2-.3-.5M343.5,304.4c.1-.9.8-1.7,1.4-1.7s1.1.7.9,1.6c-.1.9-.8,1.7-1.4,1.7s-1.1-.7-.9-1.6"/>
  <path class="st16" d="M339.1,296c0-.4.4-.8.7-.8s.5.3.4.7c0,.4-.4.8-.7.8s-.5-.3-.4-.7"/>
  <path class="st16" d="M370.5,297.6c.1-.6.5-1.1.9-1.1s.6.5.5,1.1-.5,1.1-.9,1.1-.6-.5-.5-1.1h0ZM366,310.9c0,.2-.2.3-.3.3s-.2-.1-.2-.3.2-.3.3-.3.2.1.2.3h0ZM233.7,314.2c-1.4,1.4-3.5,1.5-4.7.3s-1.1-3.3.4-4.6c1.4-1.4,3.5-1.5,4.7-.3s1,3.2-.4,4.6M321.1,234.7c-1.3,1.3-3.1,1-4.1-.7-.9-1.7-.6-4.2.7-5.5,1.3-1.3,3.1-1,4.1.8.9,1.7.6,4.1-.7,5.4M277.9,302c-1.1,1.2-2.8,1.3-3.7.2-.9-1.1-.7-3,.4-4.2,1.2-1.2,2.8-1.2,3.7-.1.9,1.1.7,3-.4,4.1"/>
  <path class="st10" d="M346.5,205.6h0M358.2,200.7h0M358.3,200.7h0Z"/>
  <g class="st7">
    <path class="st10" d="M410.4,264.3h0v-.6h0v-2.5c0-.2,0-.3-.1-.5v-2c-.2-.5-.3-1-.3-1.5-.1-.8-.2-1.5-.4-2.3,0-.4-.1-.8-.2-1.2h0c0-.2,0-.4-.1-.6,0-.4-.2-.7-.3-1.1h0c0-.2,0-.4-.1-.6,0-.4-.2-.8-.3-1.2l-.2-.6c-.2-.6-.4-1.2-.6-1.8-.1-.4-.3-.8-.4-1.1-.3-.8-.6-1.6-1-2.4v-.3h-.1v-.2c-.1,0-.2-.2-.2-.2,0,0,0-.2-.1-.2v-.2c-.2-.2-.3-.3-.4-.5v-.2c-.5-.8-1-1.5-1.4-2.2-.4-.6-.8-1.2-1.2-1.8,0-.1-.2-.2-.2-.3s-.2-.2-.2-.3v-.2c-.1,0-.4-.3-.4-.3l-.3-.4c-.5-.5-.9-1.1-1.4-1.6-.2-.2-.5-.5-.7-.7l-.3-.3c-.3-.3-.6-.5-.8-.8-.2-.2-.5-.4-.7-.7-.2-.2-.5-.4-.7-.6h0c-.1-.1-.2-.2-.3-.3h0l-.3-.2-.2-.2h0s-.1,0-.2-.1l-.4-.3.6.4c-8.9-6.2-18-7.5-28.2-3.2h0l-.4.2s-.1,0-.2.1c-1.8.9-3.5,1.8-5.2,2.8h0c-.4.3-.9.6-1.3.8-.4.3-.8.5-1.2.8-.5.3-1,.7-1.5,1-1.1.8-2.2,1.5-3.3,2.3l-1.3,1c-.7.5-1.3,1-2,1.5h0s-.2.1-.3.2c-.5.4-1,.8-1.5,1.2-.9.7-1.8,1.4-2.6,2.2-.9.7-1.8,1.5-2.7,2.3l-.8.7-1.6,1.3c-.5.5-1.1.9-1.6,1.4-.8.7-1.6,1.4-2.4,2.1-.2.1-.3.3-.4.4h0l-2.1,1.9c-1.3,1.2-2.6,2.4-3.9,3.5-2.6,2.4-5.2,4.8-7.7,7.2h0c-.8.8-1.7,1.6-2.5,2.4-1.3,1.2-2.5,2.4-3.8,3.6-.3.3-.7.6-1,1-1,1-2,1.9-2.9,2.9l-8.7,8.7-1.3,1.3c-.5.5-1.1,1-1.6,1.6,0,0-.2.1-.2.2l-.3.3-.3.3c-.1.2-.3.3-.4.4-.3.3-.6.6-.8.9l-.3.3-.5.5-.3.3-.2.2c-.2.2-.5.4-.7.7h0c-.6.6-1.3,1.2-1.9,1.8h0c-1,1-1.9,1.9-2.9,2.8h0c-.7.7-1.5,1.4-2.2,2-.7.7-1.5,1.4-2.2,2.1s-1.6,1.5-2.5,2.3c-.7.6-1.4,1.3-2.1,1.9l-.2.2h0c-.3.2-.5.5-.8.7h-.1c-.7.7-1.4,1.2-2.1,1.8h0c-1,.8-1.9,1.6-2.9,2.3h0c-1.6,1.3-3.3,2.6-4.9,3.9h0c-.9.6-1.7,1.3-2.6,1.9-4.3,3.1-8.7,6-13.3,8.7h0c-1.4.8-2.8,1.5-4.2,2.2h0c-.6.3-1.1.6-1.7.9l-.8.4-1.7.8c-.3.1-.6.3-.8.4-.3.1-.6.3-.8.4l-.8.4-.9.4c-.3.1-.6.3-.9.4-.5.2-1.1.5-1.6.7h0c-.3.1-.6.3-.8.4-.9.4-1.8.8-2.8,1.1l-.6.2-.8.3-.7.2c-.7.3-1.4.5-2.1.8-.2,0-.5.2-.7.2-.3.1-.6.2-.9.3h0c-.3,0-.5.2-.8.3-.3,0-.6.2-.8.3-.3,0-.6.2-.9.3l-.9.3h0l-.8.3-.6.2c-.2,0-.4.1-.7.2h-.5c-.3.2-.6.3-.9.4-.3,0-.6.2-.9.2s-.6.2-.9.2-.6.2-.9.2l-.9.2c-.3,0-.6.1-.9.2-.3,0-.6.1-.9.2l-.8.2c-.2,0-.4,0-.6.1-.3,0-.7.1-1,.2h-.5c-.2,0-.4,0-.6.1-.2,0-.4,0-.6.1h-.4c-.4,0-.9.2-1.3.2h-1.4c-.3,0-.7,0-1,.1-.3,0-.7,0-1,.1h-2.9c-13.9,1.2-28.1-1.1-42.3-8h-.2c-.2,0-.4-.2-.6-.3-.2-.1-.4-.2-.6-.3-1.4-.8-2.7-1.6-4-2.4-.3-.2-.7-.5-1-.7-.2-.1-.4-.3-.6-.4s-.4-.3-.6-.4c-.4-.3-.7-.5-1.1-.8-.2-.1-.4-.3-.5-.4l-.5-.4c-.4-.3-.8-.6-1.2-1l-.5-.4c-.1,0-.2-.2-.3-.3l-.9-.7c-.2-.2-.4-.3-.6-.5-.3-.3-.6-.5-.9-.8-.2-.2-.5-.4-.7-.6s-.5-.5-.7-.7-.4-.4-.7-.6c-.2-.2-.4-.4-.6-.6s-.2-.2-.3-.3c-.2-.2-.4-.4-.6-.6-.2-.2-.4-.4-.6-.6-.4-.4-.8-.8-1.1-1.2-.4-.4-.7-.8-1.1-1.2h0c-.2-.3-.4-.6-.7-.8-.5-.6-1.1-1.3-1.6-1.9-.3-.3-.5-.7-.8-1-.2-.2-.4-.4-.5-.7-.4-.4-.7-.9-1-1.3-.3-.5-.7-.9-1-1.4-.5-.7-1-1.4-1.5-2.1-.3-.5-.7-1-1-1.5-1.8-2.8-3.4-5.7-5-8.6-.2-.4-.4-.8-.6-1.3,0-.1-.1-.3-.2-.4-.1-.3-.3-.6-.4-.9h0c0-.1-.3-.9-.3-.9-.1-.3-.3-.6-.4-.9-.3-.6-.6-1.2-.8-1.8l-.3-.8c0-.1-.1-.3-.2-.4-.2-.5-.4-1.1-.7-1.6l-.3-.7c-.4-1-.8-2-1.2-3-.1-.3-.2-.6-.3-.8-.2-.7-.5-1.3-.7-2-.3-.8-.5-1.7-.8-2.5,0-.2,0-.5-.2-.7,0-.2-.2-.5-.2-.7,0-.3-.2-.5-.2-.8s0-.5-.2-.7h0c0-.1-.2-.8-.2-.8-.2-.8-.4-1.7-.7-2.5v-.2c0-.4-.2-.7-.3-1.1,0-.4-.2-.7-.3-1.1l-.2-1.1v-.6c-.2-.3-.3-.6-.3-.9s-.2-.7-.2-1.1,0-.5,0-.7l-.2-1.1h0c0-.4,0-.8-.2-1.1v-.4c0-.3-.2-.6-.2-.9h0c0-.4,0-.8-.2-1.2v-.9c0-.3,0-.5-.2-.8,0-.3,0-.5,0-.8v-1c-.2-.4-.2-.8-.3-1.2h0v-.7c0-.2,0-.4,0-.6v-1.2c0-.4,0-.8,0-1.3v-2.5c0-.8-.2-1.6-.2-2.5v-2.6h0v-1.3h0v-4.5h0v-2.2h0v-1.6h0v-5c0-.8.2-1.7.3-2.5v-1.3c0-.4,0-.8,0-1.3h0c0-.8.2-1.6.4-2.3v-.2h0v5.3h0v1.1h0v.9c0,1.3,0,2.4.2,3.7h0c.5,4.3,1.2,8.5,2.2,12.6,0,.2,0,.4,0,.6,0,.4.2.9.4,1.3,1.4,5.1,3.1,10,5.2,14.8.5,1.1.9,2,1.4,3,.1.3.2.5.4.8,1,2,2.1,4,3.2,5.9.1.3.3.5.4.7.6.9,1.2,1.9,1.8,2.8.3.4.6.9.9,1.3l.5.7c.2.2.3.4.5.7.9,1.2,1.8,2.4,2.8,3.6,0,.1.2.2.2.3,2.1,2.4,4.3,4.7,6.6,6.9,0,0,.1,0,.2.1,0,0,.1,0,.2.1h.1c.1,0,.2.2.3.3,2.1,1.9,4.4,3.7,6.7,5.4h0c.2.1.3.2.5.4.3.2.5.3.8.5,0,0,.2.1.3.2.5.3.9.6,1.4.9l.6.4.5.3c2.8,1.7,5.7,3.3,8.7,4.6h.1c2.7,1.2,5.5,2.2,8.4,3.1.5.2,1,.3,1.6.4,16.1,3.9,32.6,1.7,47.7-4.8.2,0,.4-.2.6-.3.5-.2.9-.4,1.4-.6.4-.2.9-.4,1.3-.6,1.6-.8,3.1-1.6,4.6-2.4h.2c.5-.3,1.1-.6,1.6-.9h.2c1.2-.7,2.3-1.3,3.4-2h.1c.5-.3,1.1-.7,1.6-1,2.6-1.6,5.2-3.3,7.7-5.1.4-.3.7-.5,1.1-.8.4-.3.7-.5,1.1-.8h.1c.5-.4,1.9-1.4,1.9-1.4,3.2-2.4,6.3-4.8,9.4-7.2h0c.2-.1.3-.3.5-.4h0s.2-.1.3-.2h.1c.5-.3,1.2-.9,1.7-1.4l.2-.2h0l.2-.2.2-.2c.1,0,.2-.2.3-.3h.1v-.2h.1c.4-.3,1-.6,1.3-1.1h0c.2-.1.3-.3.5-.4h0l.3-.3.9-.8h0c7.6-6.2,14.7-12.5,21.8-18.8.1,0,.2-.2.3-.3l1.4-1.2h.2c.2-.2.4-.3.5-.5,0,0,.2-.2.3-.2,1.9-1.8,3.9-3.5,5.8-5.3,1.1-1,2.2-2,3.4-3.1,3.1-2.8,6.2-5.7,9.4-8.5.3-.3.6-.5.9-.8,0,0,.2-.2.3-.3.3-.3.6-.6,1-.9,0,0,.1-.1.2-.2,0,0,.2-.2.3-.3.4-.4.9-.8,1.3-1.2l.5-.4h0c.2-.1.4-.3.6-.5l.3-.2h.1q0-.1.1-.2c.3-.3.6-.5.9-.8h0s.1,0,.2-.1h0c.1,0,.2-.2.3-.3,0,0,.2-.2.3-.2l.3-.2h0c.2-.1.3-.3.5-.4,0,0,.1-.1.2-.2l.3-.3.3-.2.3-.3h0c.2-.2.4-.4.7-.6.2-.2.5-.4.7-.6.5-.4.9-.8,1.4-1.2.1-.1.3-.2.4-.3l.4-.3h0c0-.1.2-.2.2-.3l.3-.2c.2-.2.5-.4.7-.6.2-.2.4-.4.6-.5h0c0-.3.4-.4.7-.6l.7-.6c.5-.4.9-.8,1.4-1.1h0c0-.4.4-.4.7-.6.2-.2.5-.4.7-.6.2-.2.5-.4.7-.6h0c.1,0,.2-.2.3-.3,0,0,.1,0,.2-.2h0l.2-.2h.1c1.2-.9,2.4-1.7,3.6-2.4.4-.3.9-.5,1.3-.8.1,0,.3-.2.4-.2,0,0,.2,0,.2-.1.2-.1.4-.3.6-.4l.6-.4h.2c.1-.2.3-.3.4-.3.3-.2.6-.3.8-.5.1,0,.2-.1.4-.2s.5-.3.8-.4h.3c0-.1.3-.3.3-.3l.6-.3h.1c.8-.4,1.6-.8,2.3-1.2.2,0,.3-.1.5-.2.1,0,.2-.1.4-.2h.3c0-.2.1-.2.2-.2.2,0,.4-.2.6-.3l.4-.2h.2c.2,0,.4-.2.6-.3.2,0,.4-.2.6-.3.2,0,.4-.2.6-.2l.4-.2h.2l.5-.2.4-.2h.2l.5-.2h0c.1,0,.3,0,.4-.1h0s.2,0,.3-.1h.3l.6-.2.6-.2c.4-.1.7-.2,1.1-.4.5-.2,1.1-.3,1.7-.5h.6c.2,0,.4,0,.5-.1.3,0,.7-.2,1-.2h.2c.3,0,.5-.1.8-.2.2,0,.4,0,.5-.1h1.5c.2,0,.5,0,.7-.1h.4c.3,0,.7,0,1-.1h9.7c.2,0,.4.1.6.2h.9c.1,0,.2.1.3.1h.5q0,.1.1.1c.4,0,.7.2,1.1.3h1.1c0,.2.2.2.3.2s.2,0,.3.1h0c.2,0,.4.1.5.2h.1c.2,0,.4.1.6.2h.3c0,.1.2.2.2.2,0,0,.2,0,.3.1h.2l.4.3.5.2h.3c0,.1,0,.2.1.2h.1s.1,0,.2.1h.3c0,.1.1.1.2.2,0,0,.2,0,.3.1h0c.2.1.3.2.5.3,0,0,.1,0,.2.1h0s.2,0,.2.1c0,0,.1,0,.2.1,0,0,.1,0,.2.1h0s.1,0,.2.1h.1c.2.1.3.2.5.3h0s.2.1.2.2c0,0,.2.1.2.2h0l.2.2h0s0,.1.1.2h0l.3.2h0l.3.2h0s.1,0,.2.1h0c8.3,8.2,13.5,18.3,16.5,29.3v.2h0v.2c0,.4.2.8.3,1.1.2.7.3,1.3.5,2s.3,1.4.4,2.2v.8c1,4.5,1.5,9.1,1.8,13.6,0-.6,0-1.1-.1-1.7.2,2.5.3,5.1.4,7.8v.3h0v1-.2l1.9,1.3Z"/>
  </g>
  <path class="st16" d="M410.3,263.9h0c0,.1,0,0,0,0Z"/>
  <path class="st16" d="M410.4,264.3h0v-.5h0v-2.6c0-.2,0-.3-.1-.5v-2c-.2-.5-.3-1-.3-1.5-.1-.8-.2-1.5-.4-2.3,0-.4-.1-.8-.2-1.2h0c-1.5-8.6-4.1-15.8-7.5-21.5-7.9-13-20.4-18.3-35.9-15-8.2,1.8-17.3,6-27,12.8-43.9,33.1-74.9,84.5-134.6,88.7-1.8.1-3.6.2-5.4.3-23.3.5-45.1-12.1-59-31.1-2.7-3.7-5.2-7.9-7.5-12.5-2-3.9-3.6-8-5-12.2-.6-1.9-1.2-3.8-1.7-5.7-1-3.9-1.7-7.7-2-11.5,1.4,5.1,3.1,10,5.2,14.8.5,1.1.9,2,1.4,3,.1.3.2.5.4.8,1,2,2.1,4,3.3,5.9.1.3.3.5.4.7.6.9,1.2,1.9,1.8,2.8h0c.3.5.6.9.9,1.4.2.2.3.4.5.7.2.2.3.4.5.7.9,1.2,1.8,2.4,2.8,3.6,0,0,.2.2.2.3,2.1,2.4,4.3,4.7,6.6,6.9h.2c0,.2.1.2.2.3h.1l.3.3c2.1,1.9,4.4,3.7,6.7,5.4h0l.5.4.8.5s.2.1.3.2c.7.4,1.3.9,2,1.3l.5.3c13.9,8.5,30.5,11.9,48.2,8.8h.6c.3-.1.5-.2.8-.2s.6-.1.9-.2c3.3-.7,6.6-1.6,9.7-2.7.2,0,.4-.2.7-.2s.5-.2.7-.3l.9-.3c1-.4,1.9-.8,2.9-1.2,5.7-2.4,10.9-5.2,15.7-8.2l.4-.2c.4-.3.8-.5,1.2-.8-.4.3-.9.6-1.3.9,2.6-1.6,5.2-3.3,7.7-5.1.4-.3.7-.5,1.1-.8.4-.3.7-.5,1.1-.8h.1c.6-.5,1.3-1,1.9-1.4,3.2-2.4,6.3-4.8,9.4-7.2h0c.2-.1.3-.3.5-.4h0s.2-.1.3-.2h.1c.5-.3,1.2-.9,1.7-1.4l.2-.2h0l.2-.2.2-.2.5-.4h.1c.4-.3,1-.6,1.3-1.1h0c.2-.1.3-.3.5-.4h0c.1,0,.2-.2.3-.3.3-.3.6-.5.9-.8l-.3.2s.2-.1.2-.2h.1c7.6-6.3,14.7-12.6,21.8-18.9.1,0,.2-.2.3-.3.5-.4.9-.8,1.4-1.3,6.7-6.1,13.4-12.2,20.3-18.4l.3-.3h.2c.9-1,1.8-1.8,2.8-2.6l.6-.5h0l.6-.6.2-.2h.1q0-.2.1-.2c.2-.2.5-.4.7-.6l.2-.2h0s.1-.1.2-.2h0s.2-.2.3-.2l.3-.3s.2-.2.3-.2h0c.2-.1.3-.3.5-.4,0,0,.1-.1.2-.2.2-.2.4-.3.5-.5l.3-.3h0l.7-.6c.2-.2.5-.4.7-.6.5-.4.9-.8,1.4-1.2l.4-.3c.1-.1.3-.2.4-.3h0s.2-.1.2-.2c0,0,.2-.2.3-.2.5-.4.9-.8,1.4-1.2s.9-.8,1.4-1.2.9-.8,1.4-1.2c0,0,.2-.1.2-.2l1.1-.9c.4-.3.9-.7,1.3-1.1h0s.1,0,.2-.1h0c1.2-.8,2.5-1.6,3.7-2.4.4-.3.9-.5,1.3-.8.1,0,.3-.2.4-.3h.2c.2-.3.4-.4.6-.5h0c.2-.1.4-.2.6-.4h.2c.1-.2.3-.3.4-.3l.8-.5c.1,0,.2-.1.4-.2l.7-.4h.1l.2-.2s.2,0,.3-.1c.2-.1.5-.3.7-.4.8-.4,1.6-.8,2.3-1.2l.5-.2c.1,0,.2-.1.4-.2h0l.3-.2h.2c.2,0,.4-.2.6-.3.1,0,.3-.1.4-.2h.2c.1,0,.3-.1.4-.2h.2c.1,0,.3-.1.4-.2h.2l.4-.2h.2c.1,0,.3-.1.4-.2h.2l.3-.2h.2l.4-.2h.5c0-.1.1-.2.1-.2h0l.4-.2h.3c0-.1.2-.1.3-.1.2,0,.4-.1.6-.2.1,0,.3,0,.4-.1h.1c.4-.2.7-.3,1.1-.4l.6-.2c.4-.1.7-.2,1.1-.3h.6c.2,0,.4,0,.5-.1.3,0,.7-.2,1-.2h.2c.3,0,.5-.1.8-.2.2,0,.4,0,.5-.1h1.5c.2,0,.5,0,.7-.1h.4c.3-.1.6-.1,1-.2h9.9c.2,0,.4,0,.6.1h.9c.2,0,.3,0,.5.1.5.1,1.1.3,1.6.4h.3c0,.1.2.1.3.2h.2c.1,0,.2.1.4.2h.3l.3.2c.4.1.7.3,1,.4.2,0,.3.1.5.2l.5.2h.2c.3.1.6.3.9.4h.2l.2.2h.1c.1,0,.2.1.4.2h.1q0,.1.1.1h.1s0,.1.1.1c0,0,.1,0,.2.1h.3v.2c.2,0,.3.2.5.3,0,0,.1,0,.2.1h0s.2,0,.2.1c.1,0,.2.1.4.2h0s.1,0,.2.1h.1c.2.2.4.4.6.5h0l.2.2.2.2.5.3c.1,0,.3.2.4.3h0c.1,0,.2.2.3.2h0c0,.1.1.1.2.2h0c8.3,8.2,13.5,18.3,16.5,29.3v.2h0v.2c0,.4.2.8.3,1.1.2.7.3,1.3.5,2s.3,1.4.4,2.2c0,.2,0,.5.1.8l.2,1.4c.6,3.4,1,6.9,1.3,10.5.2,2.5.3,5.1.4,7.8v.7h0v.6-.2l2.8-.8Z"/>
  <g class="st13">
    <path class="st16" d="M410.4,264.1v-.3h0v-.2h0c-.7-11.3-3.2-21.3-7.3-29.5-.3-.6-.6-1.2-.9-1.8-12.3-22.7-37-29.8-65.3-7.4-42.4,32.1-68.6,75.8-123.1,91.7-3.2.9-6.4,1.6-9.7,2-17.9,2.4-35.9-2.9-50.3-14-6.9-5.4-12.9-11.9-17.5-19.4-5.3-8.6-10.3-18.9-13.5-29.6h0c-2.9-9.8-4.3-20.1-3-29.9,0-.9.3-1.9.4-2.8v2.6h0v1.1h0v1c0,1.3.2,2.4.3,3.6h0c.5,4.3,1.2,8.5,2.2,12.6v.6c.3.5.4.9.5,1.3,1.4,5.1,3.1,10,5.2,14.8.5,1.1.9,2,1.4,3,.1.3.2.5.4.8,1,2,2.1,4,3.3,5.9.7,1.2,1.4,2.3,2.2,3.5h0c.3.5.6.9.9,1.4.2.2.3.4.5.7.2.2.3.4.5.7.9,1.2,1.8,2.4,2.8,3.6,0,0,.2.2.2.3,2.1,2.4,4.3,4.7,6.6,6.9h.2c.9.9,1.7,1.7,2.6,2.5.2.2.4.3.6.5.2.2.4.3.6.5.5.4.9.7,1.4,1.1l.7.5c.3.2.6.4.9.6.4.3.9.6,1.3.9,1.3.9,2.6,1.8,4,2.6,1.1.6,2.1,1.2,3.2,1.8l.7.4c.3.2.6.3.9.5.3.1.5.3.8.4.2,0,.4.2.6.3.2,0,.4.2.6.3.2.1.4.2.7.3.2,0,.5.2.7.3h.1c.2,0,.3.1.5.2.6.2,1.1.5,1.7.7.4.2.8.3,1.2.5.2,0,.4.2.6.2.3,0,.5.2.8.3l.5.2c.1,0,.3,0,.4.1.1,0,.3,0,.4.1h.3c14.8,4.7,31.8,4.2,49.6-3,.6-.3,1.2-.5,1.9-.8l.4-.2.6-.3c.2,0,.4-.2.5-.2l.5-.2h.3c2.4-1.1,4.7-2.3,7-3.6h.2c1.2-.8,2.3-1.4,3.4-2.1h.1c.5-.3.9-.6,1.4-.9l.4-.2c1.7-1.1,3.3-2.2,4.9-3.3-1.6,1.2-3.3,2.3-5,3.4,2.6-1.6,5.2-3.3,7.7-5.1.4-.3.7-.5,1.1-.8.4-.3.7-.5,1.1-.8h.1c.6-.5,1.3-1,1.9-1.4,3.2-2.4,6.3-4.8,9.4-7.2h0c.2-.1.3-.3.5-.4h0s.2-.1.3-.2h.1c.5-.3,1.2-1,1.7-1.5l.2-.2h0l.2-.2.2-.2c.1,0,.2-.2.3-.3h.1v-.2h.1c.4-.3,1-.6,1.3-1.1h0c.2-.1.3-.3.5-.4h0l.3-.3c.3-.3.6-.5.9-.8l-.3.2h-.1c-.2.2-.4.3-.6.4.3-.2.6-.5.9-.7h.1c7.5-6.1,14.4-12.2,21.3-18.4.2-.2.4-.3.5-.5.1,0,.2-.2.3-.3.5-.4.9-.8,1.4-1.2l.3-.3,2.3-2.1c5-4.5,10-9.1,15.1-13.7l1.2-1.1c.5-.4,1-.8,1.4-1.3l.3-.2h.2c0-.1,1.2-1.2,1.2-1.2.7-.6,1.5-1.3,2.2-1.9h0l.7-.6s.2-.1.2-.2h.1q0-.1.1-.2c.2-.2.5-.4.7-.6l.2-.2h0s.1,0,.2-.1h0l.3-.2.3-.3.3-.2h0c.2-.1.3-.3.5-.4,0,0,.1-.1.2-.2.2-.2.4-.3.5-.5,0,0,.2-.2.3-.3h0c.2-.2.4-.4.7-.6.2-.2.5-.4.7-.6.5-.4.9-.8,1.4-1.2.1-.1.3-.2.4-.3s.3-.2.4-.3h0l.2-.2.3-.2,1.4-1.2h0c.4-.4.9-.8,1.3-1.2.5-.4.9-.8,1.4-1.2l.2-.2,1.1-.9c.4-.4.9-.7,1.3-1.1h.2c1.2-1,2.5-1.8,3.7-2.6.4-.3.9-.5,1.3-.8.1,0,.3-.2.4-.3,0,0,.2,0,.2-.1.2-.1.4-.3.6-.4h0c.2-.1.4-.3.6-.4h.2l.4-.2c.3-.2.6-.3.8-.5l.4-.2c.2-.1.5-.3.8-.4h.1c0-.1.2-.2.2-.2h.3c.2-.3.5-.4.7-.5.8-.4,1.6-.8,2.3-1.2.2,0,.3-.1.5-.2.1,0,.2-.1.4-.2h0c.1,0,.2-.1.3-.2h.2c.2-.2.4-.3.6-.4l.4-.2h.2c.1,0,.3-.1.4-.2.2,0,0,0,0,0l.6-.2h0l.6-.2h.2c.1,0,.3-.1.4-.2h.2l.3-.2c.2,0,.4-.2.6-.2h.2l.3-.2h.1c.1,0,.3,0,.4-.2h0c.1,0,.2,0,.4-.1h.3c.2,0,.4-.1.6-.2.1,0,.3,0,.4-.1h.1c.4-.2.7-.3,1.1-.4.2,0,.4-.1.6-.2.4-.1.7-.2,1.1-.3h.5c.2,0,.4,0,.5-.1.3,0,.7-.2,1-.2h.2c.3,0,.5-.2.8-.2s.4,0,.5-.1h1.5c.2,0,.5,0,.7-.1h.4c.3-.1.7-.1,1-.2h9.8c.2,0,.4,0,.6.1h.6c.2,0,.4,0,.6.1h.1c.1,0,.3,0,.4.1h.1c.4.1.7.2,1.1.3h.8c.1,0,.2,0,.4.1h.3l.3.2h0c.2,0,.4.2.7.2s.3,0,.4.2h.5c0,.1.2.1.2.1,0,.1.2.2.3.2h.2c.3.1.6.3.9.4l.3.2h.1s0,.1.1.1c0,0,.1,0,.2.1h0q0,.1.1.1h.1s0,.1.1.1c0,0,.1,0,.2.1h.3v.2l.5.3s.1,0,.2.1h0c.1,0,.3.2.4.2,0,0,.2.1.3.2,0,0,.1,0,.2.1h.1c.2.1.3.2.5.3h0c.2.2.3.3.5.4h0s.1.1.2.2h.2v.2s.2.1.3.2h0l.3.3h0c0,.1.1.1.2.2h0c8.3,8.2,13.5,18.3,16.5,29.3,1.4,5.4,2.4,11.3,2.9,17.5h0c.2,2.6.4,5.3.5,8v1.8-.2h0l3.5-.2Z"/>
  </g>
  <path class="st16" d="M410.1,257.1c0-.6,0-1.2-.1-1.7v-.9h0c-1.6-15.9-6.6-27.9-19-41.1-6.9-5.1-14.8-7.6-23.3-5.7,3.7-1.1,7.1-1.4,11.1-2-10.6.4-14,0-24.5,4.6-10.8,4.8-22,15.1-31,23.5,8.2-9,17.5-17.4,27.3-24.8-29.6,17.4-49.8,46-76.1,67.5,7.3-6.9,13.6-14.5,19.7-22.4-25.8,25.6-50.8,51.6-87.1,61.5,7.4-2.6,14.7-5.4,21-10.1-18.3,8.2-39,12.4-58.3,5.4,7.8,2.8,20.3,3.3,28.1.7-33.2-3.1-58.4-20.9-70.2-47.3-.2-.4-.4-.8-.5-1.2-4.7-11.2-7.1-23.8-6.7-37.4v1h0v1c0,1.3.2,2.4.3,3.6h0c.5,4.3,1.2,8.5,2.2,12.6v.6c.3.5.4.9.5,1.3,1.4,5.1,3.1,10,5.2,14.8.5,1.1.9,2,1.4,3,.1.3.2.5.4.8,1,2,2.1,4,3.3,5.9.7,1.2,1.4,2.3,2.2,3.5h0c.3.5.6.9.9,1.4.2.2.3.4.5.7.2.2.3.4.5.7.9,1.2,1.8,2.4,2.8,3.6,0,0,.2.2.2.3,2.1,2.4,4.3,4.7,6.6,6.9h.2c0,.2.1.2.2.3h.1l.3.3.7.6c.3.2.5.5.8.7.2.2.4.3.6.5.2.2.4.3.6.5.2.2.4.3.6.5.5.4.9.7,1.4,1.1l.7.5c.3.2.6.4.9.6.4.3.9.6,1.3.9,1,.7,2,1.3,3,1.9.3.2.7.4,1,.6,1.1.6,2.1,1.2,3.2,1.8.2.1.5.2.7.4.3.2.6.3.9.5.3.1.5.3.8.4.2,0,.4.2.6.3.2,0,.4.2.6.3.2.1.4.2.7.3.2,0,.5.2.7.3.2,0,.4.2.6.3.6.2,1.1.5,1.7.7.4.2.8.3,1.2.5.2,0,.4.2.6.2.3,0,.5.2.8.3l.5.2c.1,0,.3,0,.4.1.1,0,.3,0,.4.1h.3l.4.2c10,3,20.9,3.7,32.4,1.6h.6l.8-.2c.3,0,.6-.1.9-.2,3.5-.8,7-1.7,10.4-2.9l.7-.3c.3-.1.6-.2.9-.3.7-.3,1.5-.6,2.2-.9.6-.3,1.3-.5,1.9-.8l.4-.2.6-.3c.2,0,.4-.2.5-.2,2.1-.9,4.1-1.9,6.1-3,0,0,.1,0,.2-.1,2.4-1.3,4.7-2.7,6.9-4.1,2.6-1.6,5.2-3.3,7.7-5.1.4-.3.7-.5,1.1-.8.4-.3.7-.5,1.1-.8h.1c.6-.6,1.3-1,1.9-1.5,3.2-2.4,6.3-4.8,9.4-7.2h0c.1-.1.4-.3.8-.7.6-.5,1.4-1.1,2.1-1.7h0c.4-.3.7-.5.9-.7h.1c.4-.3,1-.6,1.3-1.1h0c.2-.1.3-.3.5-.4h0l.3-.3c.3-.3.6-.5.9-.8,7.5-6.1,14.5-12.2,21.3-18.4.2-.2.4-.3.5-.5.1,0,.2-.2.3-.3.5-.4.9-.8,1.4-1.2l.3-.3,2.3-2.1c5-4.5,10-9.1,15.1-13.7l1.2-1.1c.5-.4,1-.8,1.4-1.3l.3-.2h.2c.3-.4.6-.7,1-1,.8-.7,1.6-1.4,2.5-2.1h0l.7-.6s.2-.1.2-.2h.1q0-.1.1-.2c.2-.2.5-.4.7-.6l.2-.2h0s.1,0,.2-.1h0l.3-.2.3-.3.3-.2h0c.2-.1.3-.3.5-.4,0,0,.1-.1.2-.2.2-.2.4-.3.5-.5,0,0,.2-.2.3-.3h0c.2-.2.4-.4.7-.6.2-.2.5-.4.7-.6.5-.4.9-.8,1.4-1.2.1-.1.3-.2.4-.3s.3-.2.4-.3h0l.2-.2.3-.2,1.4-1.2h0c.4-.4.9-.8,1.3-1.2.5-.4.9-.8,1.4-1.2l.2-.2,1.1-.9c.2-.2.5-.4.7-.6h0c.1,0,.2-.2.3-.3,0,0,.1-.1.2-.2,0,0,.1-.1.2-.1l.4-.3c1.2-.8,2.4-1.6,3.6-2.3.4-.3.9-.5,1.3-.8.1,0,.3-.2.4-.3,0,0,.2,0,.2-.1.2-.1.4-.3.6-.4h0c.2-.1.4-.3.6-.4h.2l.4-.2c.3-.2.6-.3.8-.5l.4-.2c.2-.1.5-.3.8-.4h.1c0-.1.2-.2.2-.2h.3c.2-.3.5-.4.7-.5.8-.4,1.6-.8,2.3-1.2.2,0,.3-.1.5-.2.1,0,.2-.1.4-.2h0c.1,0,.2-.1.3-.2h.2c.2-.2.4-.3.6-.4l.4-.2h.2c.2,0,.4-.2.6-.3l.6-.2c.2,0,.4-.2.6-.2s.3-.1.4-.2h.2c.2-.1.3-.2.5-.2l.4-.2h.2l.5-.2h0c.1,0,.3,0,.4-.2h0s.2,0,.3-.1h.3c.2,0,.4-.1.6-.2.2,0,.4-.1.6-.2.4-.1.7-.2,1.1-.4.2,0,.4-.1.6-.2.4-.1.7-.2,1.1-.3h.6c.2,0,.4,0,.5-.1.3,0,.7-.2,1-.2h.2c.3,0,.5-.2.8-.2s.4,0,.5-.1h1.5c.2,0,.5,0,.7-.1h.4c.3-.1.7-.1,1-.2h9.7c.2,0,.4,0,.6.1h1.3c.1,0,.3,0,.4.1h.1c.4.1.7.2,1.1.3h1.2c0,.1.2.2.3.2h.3c.2.1.4.3.7.3s.3,0,.4.2h.5c0,.1.2.1.2.1,0,.1.2.2.3.2h.2c.1,0,.3.1.4.2.2,0,.3.1.5.2h.3c0,.1.1.2.1.2h.1s.1,0,.2.1h0q0,.1.1.1h.1s0,.1.1.1c0,0,.1,0,.2.1h.3v.2l.5.3s.1,0,.2.1h0s.2,0,.2.1c0,0,.1,0,.2.1,0,0,.1,0,.2.1h0s.1.1.2.2h.1c.2.1.3.2.5.3h0l.2.2s.2.1.2.2h0s.1.1.2.2h.1c0,.1.2.2.3.3h.1l.3.2h0c0,.1.1.1.2.2h0c8.3,8.2,13.5,18.3,16.5,29.3v.2h0v.2c0,.4.2.8.3,1.1.2.7.3,1.3.5,2s.3,1.4.4,2.2v.8c.2.5.3,1,.4,1.4.7,3.9,1.1,8,1.4,12.2h0l3.1.7Z"/>
  <g class="st5">
    <path class="st3" d="M410.4,264.3h0v-.5h0v-2.6c0-.2,0-.3-.1-.5v-2c-.2-.5-.3-1-.3-1.5v-.4c0-.6-.2-1.2-.3-1.8,0-.4-.1-.8-.2-1.2h0c0-.2,0-.4-.1-.6,0-.4-.2-.7-.3-1.1h0c0-.2,0-.4-.1-.6,0-.4-.2-.8-.3-1.2l-.2-.6c-.2-.6-.4-1.2-.6-1.8-.1-.4-.3-.8-.4-1.1-.3-.8-.6-1.6-1-2.4,0,0,0-.2-.1-.3h0v-.2c-.1,0-.1-.2-.1-.2-.2,0-.2-.2-.2-.2v-.2c-.2-.2-.3-.3-.4-.5v-.2c-.5-.8-1-1.5-1.4-2.2-.4-.6-.8-1.2-1.2-1.8,0-.1-.2-.2-.2-.3s-.2-.2-.2-.3v-.2c-.1,0-.4-.3-.4-.3l-.3-.4c-.5-.5-.9-1.1-1.4-1.6-.2-.2-.5-.5-.7-.7l-.3-.3c-.3-.3-.6-.5-.8-.8-.2-.2-.5-.4-.7-.7-.2-.2-.5-.4-.7-.6h0c-.1-.1-.2-.2-.3-.3h0l-.3-.2-.2-.2h0c-8.9-6.2-18-7.5-28.2-3.2h0l-.4.2s-.1,0-.2.1c-1.8.9-3.5,1.8-5.2,2.8h0c-.4.3-.9.6-1.3.8-.4.3-.8.5-1.2.8-.5.3-1,.7-1.5,1-1.1.8-2.2,1.5-3.3,2.3l-1.3,1c-.7.5-1.3,1-2,1.5h0s-.2.1-.3.2c-.5.4-1,.8-1.5,1.2-.9.7-1.8,1.4-2.6,2.2-.9.7-1.8,1.5-2.7,2.3l-.8.7-1.6,1.3c-.5.5-1.1.9-1.6,1.4-.8.7-1.6,1.4-2.4,2.1-.4.3-.8.7-1.2,1h-.1c0,.1-1.3,1.3-1.3,1.3-1.3,1.2-2.6,2.4-3.9,3.5-2.6,2.4-5.2,4.8-7.7,7.2h0c-.8.8-1.7,1.6-2.5,2.4-1.3,1.2-2.5,2.4-3.8,3.6-.3.3-.7.6-1,1-1,1-2,1.9-2.9,2.9l-8.7,8.7-1.3,1.3c-.5.5-1.1,1-1.6,1.6-.5.4-.9.9-1.3,1.3s-.6.6-.8.9l-.3.3-.5.5-.3.3-.2.2c-.2.2-.5.4-.7.7h0c-.6.6-1.3,1.2-1.9,1.8h0c-1,1-1.9,1.9-2.9,2.8h0c-.7.7-1.5,1.4-2.2,2-.7.7-1.4,1.4-2.2,2.1-.8.8-1.6,1.5-2.5,2.3-.7.6-1.4,1.3-2.1,1.9l-.2.2h0c-.3.2-.5.5-.8.7h-.1c-.7.7-1.4,1.3-2.1,1.8h0c-.9.7-1.9,1.5-2.9,2.3h0c-1.1.9-2.2,1.8-3.2,2.6h0c-.6.4-1.1.9-1.7,1.3-.9.7-1.8,1.3-2.7,1.9-2.6,1.8-5.1,3.5-7.8,5.2h0c-3.2,2-6.4,3.9-9.7,5.7h0c-13.8,7.4-28.3,12.5-43.2,13.7h-.3c-13.9,1.1-28.1-1.2-42.4-8h-.1c-.1,0-.2-.2-.4-.2h0c-6.5-3.5-12.2-7.9-17.5-13.1-.2-.2-.4-.4-.6-.6-.4-.4-.8-.8-1.1-1.2-.4-.4-.7-.8-1.1-1.2h0c-1.1-1.2-2.1-2.5-3.2-3.8-.2-.2-.4-.4-.5-.7-.4-.4-.7-.9-1-1.3-.3-.5-.7-.9-1-1.4-.5-.7-1-1.4-1.5-2.1-.3-.5-.7-1-1-1.5-1.8-2.8-3.4-5.7-5-8.6-.2-.4-.4-.8-.6-1.3,0-.1-.1-.3-.2-.4-.1-.3-.3-.6-.4-.9h0c0-.1-.3-.9-.3-.9-.1-.3-.3-.6-.4-.9-.3-.6-.6-1.2-.8-1.8l-.3-.8c0-.1-.1-.3-.2-.4-.2-.5-.4-1.1-.7-1.6l-.3-.7c-.4-1-.8-2-1.2-3,0-.3-.2-.6-.3-.8-.2-.7-.5-1.3-.7-2-.3-.8-.5-1.7-.8-2.5,0-.2,0-.5-.2-.7,0-.2-.2-.5-.2-.7,0-.3-.2-.5-.2-.8s0-.5-.2-.7h0c0-.1-.2-.8-.2-.8-.2-.8-.4-1.7-.7-2.5v-.2c0-.4-.2-.7-.3-1.1,0-.4-.2-.7-.3-1.1l-.2-1.1v-.6c-.2-.3-.3-.6-.3-.9s-.2-.7-.2-1.1,0-.5,0-.7l-.2-1.1h0c0-.4,0-.8-.2-1.1v-.4c0-.3-.2-.6-.2-.9h0l-.2-1.2v-.9c0-.3,0-.5-.2-.8,0-.3,0-.5,0-.8v-1c-.2-.4-.2-.8-.3-1.2h0v-.7c0-.2,0-.4,0-.6v-1.2c0-.4,0-.8,0-1.3v-2.5c0-.8-.2-1.6-.2-2.5v-2.6h0v-1.3h0v-4.5h0v-2.2h0v-1.6h0v-5c0-.8.2-1.7.3-2.5,0-.4,0-.8,0-1.2,0-.4,0-.8,0-1.3h0c0-.8.2-1.6.4-2.3v5.2h0v1h0v1c0,1.3,0,2.4.2,3.7v.2c.6,8.7,2.2,17.5,4.7,25.9.6,2.2,1.3,4.5,2.1,6.7,0,0,0,.2.1.3,1.3,3.7,2.8,7.4,4.5,11,3.9,8.3,8.9,16.1,15,22.9,2,2.3,4,4.2,6.1,5.9.2.2.4.4.6.5,14.6,12.5,32.7,18.8,51.7,20.4,38.9-.2,71.1-29.1,96.9-55.3,18.7-18.3,36.2-39.6,59.9-51.2,1.1-.5,2.2-1,3.4-1.5,2.5-1,4.7-1.4,7.1-1.7,8.8-1.1,14,1.1,20.5,6.1,3.9,3,6.5,6.7,8.9,10.7.6.9,1.1,1.9,1.6,2.8l.5.9c.8,2,1.6,4.2,2.3,6.1,1.7,5.1,2.9,10.1,3.5,15.4h0c0,.8.1,1.5.2,2.2v.3c0,.8,0,1.7.1,2.5v1h0v.4h0v.5-.2h0l-1.8.6Z"/>
  </g>
  <g class="st6">
    <path class="st3" d="M410.3,263.6h0v.2-1.2c-.1-.3-.1-.6-.2-.9v-2c-.1-.4-.2-.7-.2-1.1s-.1-1-.2-1.5v-.4c-.2-.6-.2-1.2-.4-1.8,0-.4-.1-.8-.2-1.2q0-.3,0,0c0-.2,0-.4-.1-.6,0-.4-.2-.7-.2-1.1h0c0-.2-.1-.4-.1-.6,0-.4-.2-.8-.3-1.2l-.2-.6c-.2-.6-.4-1.2-.6-1.8-.1-.4-.3-.8-.4-1.2-.3-.9-.7-1.8-1.1-2.6h0s0-.2-.1-.2c0,0,0-.1-.1-.2,0,0,0-.2-.1-.2,0,0,0-.2-.1-.2,0-.2-.2-.3-.2-.5,0,0,0-.2-.1-.2-.4-.8-.8-1.5-1.3-2.2-.4-.6-.7-1.1-1.1-1.7v-.2c-.2-.1-.3-.2-.3-.3s-.2-.2-.2-.3v-.2c-.2-.1-.3-.2-.4-.3s-.2-.3-.3-.4c-.5-.5-.9-1.1-1.4-1.6-.2-.2-.5-.5-.7-.7,0,0-.2-.2-.3-.3-.3-.3-.6-.5-.8-.8-.2-.2-.5-.4-.8-.7-.2-.2-.5-.4-.7-.6h0c-.3-.2-.6-.4-.9-.6h0c-8.9-6.2-18-7.5-28.2-3.2h-.2c-1.9.9-3.8,1.9-5.7,3h0c-3.7,2.3-7.1,4.7-10.5,7.5h0l-.2.2c-2.2,1.8-4.4,3.7-6.6,5.6-2.1,1.8-4.3,3.7-6.5,5.6-.2.1-.3.3-.5.4h0l-.7.6c-6.6,5.9-13.1,11.9-19.4,18.1-5.3,5.1-10.3,10.3-15.6,15.4l-.2.2-.3.3-.3.3h-.1q0,.1-.1.2h0l-2.4,2.4-.6.6h0c-.6.6-1.2,1.2-1.9,1.8h0c-1,.9-1.9,1.9-2.9,2.8h0c-1.4,1.4-2.9,2.8-4.4,4.1-1.6,1.5-3.2,2.9-4.7,4.4h0c-1,.9-1.9,1.8-2.9,2.7-2.1,1.6-4.1,3.2-6.2,4.8h0c-.6.4-1.1.8-1.7,1.2h0c-3.4,2.5-6.9,4.8-10.4,7.1h0c-1.8,1.2-3.6,2.4-5.5,3.5h0c-1.4.8-2.8,1.5-4.2,2.2h0c-.8.4-1.7.9-2.5,1.3-.6.3-1.1.6-1.7.8-.3.1-.6.3-.8.4-.3.1-.6.3-.8.4-.3.1-.5.3-.8.4s-.6.3-.9.4c-.3.1-.6.3-.9.4-.5.2-1.1.5-1.6.7h0c-.3.1-.6.3-.8.4-.9.4-1.8.8-2.8,1.1l-.6.2-.8.3c-.2,0-.4.2-.7.2-.7.3-1.4.5-2.1.8-.2,0-.5.2-.7.2-.3.1-.6.2-.9.3h0c-.3,0-.5.2-.8.3-.3,0-.6.2-.9.3l-.9.3c-.3,0-.6.2-.9.3h0l-.8.3-.6.2c-.2,0-.4.1-.7.2h-.5c-.3.2-.6.3-.9.4-.3,0-.6.2-.9.2s-.6.2-.9.2-.6.2-.9.2l-.9.2c-.3,0-.6.1-.9.2l-.9.2-.8.2h-.6c-.3.2-.7.3-1,.3h-.5c-.2,0-.4,0-.6.1-.2,0-.4,0-.6.1h-.4c-.4,0-.9.2-1.3.2h-1.4c-.3,0-.7,0-1,.1-.3,0-.7,0-1,.1h-2.9c-13.9,1.2-28.1-1.1-42.3-8h-.2c-.2,0-.4-.2-.6-.3l-.6-.3c-1.4-.8-2.7-1.6-4-2.4-.3-.2-.7-.5-1-.7-.2-.1-.4-.3-.6-.4-.2-.1-.4-.3-.5-.4-.4-.3-.7-.5-1.1-.8l-.5-.4-.5-.4c-.4-.3-.8-.6-1.2-1-.2-.1-.4-.3-.5-.4-.1,0-.2-.2-.3-.3l-.9-.7c-.2-.2-.4-.3-.6-.5-.3-.3-.6-.5-.9-.8-.2-.2-.4-.4-.7-.6-.2-.2-.5-.4-.7-.7-.2-.2-.4-.4-.7-.6-.2-.2-.4-.4-.6-.6s-.2-.2-.3-.3c-.2-.2-.4-.4-.6-.6-.2-.2-.4-.4-.6-.6-.4-.4-.8-.8-1.1-1.2-.4-.4-.7-.8-1.1-1.2h0c-.2-.3-.4-.6-.7-.8-.4-.5-.8-.9-1.2-1.4-.1-.2-.3-.3-.4-.5-.3-.3-.5-.7-.8-1-.2-.2-.3-.4-.5-.7-.3-.4-.7-.9-1-1.3-.3-.5-.7-.9-1-1.4s-.7-.9-1-1.4c-.2-.2-.3-.5-.5-.7-.3-.5-.7-1-1-1.5-1.8-2.8-3.4-5.7-5-8.6-.2-.4-.4-.8-.6-1.3,0-.1-.1-.3-.2-.4-.1-.3-.3-.6-.4-.9h0c0-.1-.3-.8-.3-.8-.1-.3-.3-.6-.4-.9-.3-.6-.6-1.2-.8-1.8l-.3-.8c0-.1-.1-.3-.2-.4-.2-.5-.4-1.1-.7-1.6,0-.2-.2-.4-.3-.7-.4-1-.8-2-1.2-3-.1-.3-.2-.6-.3-.8-.2-.7-.5-1.3-.7-2-.4-1.3-.8-2.6-1.2-3.9,0-.3-.2-.5-.2-.8l-.2-.7h0c0-.4,0-.6-.2-.8-.2-.8-.4-1.6-.7-2.5v-.2c0-.4-.2-.7-.3-1.1,0-.4-.2-.7-.3-1.1,0-.4-.2-.7-.2-1.1s0-.4,0-.6c0-.3,0-.6-.2-.9,0-.4-.2-.7-.2-1.1s0-.4,0-.7l-.2-1.1h0c0-.4,0-.8-.2-1.1v-.4c0-.3-.2-.6-.2-.9h0l-.2-1.2v-.9c0-.3,0-.5,0-.8v-.8c0-.3-.2-.7-.2-1s0-.8,0-1.2h0v-2.5c0-.4,0-.8,0-1.3v-2.5c-.2-.8-.2-1.6-.2-2.5v-8.3h0v-2.2h0v-1.6h0v-2.5h0v-1.3c0-1.3,0-2.5.2-3.8,0-.8,0-1.7.2-2.5h0c0-.8.2-1.6.4-2.3v-.2h0v.3h0c0,.7-.2,2-.3,3v2.1h0c-.3,8.4.3,16.9,1.9,25.2.3,1.6.7,3.1,1,4.7h0c2.4,10.3,6.1,20.2,10.9,29.7.7,1.3,1.4,2.6,2.1,3.9,3,5.4,6.4,10.5,10,15.4,10.9,10.7,24.4,18.9,39.5,21.8-12-1.6-23.3-5.9-33.1-12.9,14.3,12.7,33,17.8,51.8,18.2h0c13.4-.2,26.1-4.5,38.2-10,15.6-7.8,28.7-19.3,41.2-31.3-6.9,8.1-14,16.1-22.8,22.1,5.7-3.8,11.3-7.9,16.6-12.3,4.1-3.7,8.2-7.5,12.2-11.3,1.6-1.5,3.6-3.5,5.3-5,0,0,.4-.5.5-.5,4.7-3.9,11.9-12,15.3-15.9,10.6-12.4,20-22,31.8-32.2-7.6,7.2-14.6,14.7-20.8,22.9,6.4-6.1,13.8-12.8,20.3-18.3,5-4.2,9.7-7.8,14.3-11,3.7-2.6,6.4-4.2,9.5-5.6,7.3-3.3,15.5-3.6,21-1.9,5.5,1.6,10.8,5.8,14.9,10.5.6.7,1.1,1.4,1.7,2.1h0c.2.3.3.5.5.8s.4.6.5.9c1.9,4.3,3.5,8.3,4.6,13,.5,2.1.8,4.8,1.1,7,0,.4,0,1.1.1,1.5h0c.1,2,.2,4,.3,5.9v.3h0l-2.4,1.5Z"/>
  </g>
  <path class="st16" d="M137.4,287.6c-.2,1.3-1.4,1.8-2.6,1.5-1.2-.2-2.2-1.2-2-2.5s1.4-1.8,2.6-1.5c1.2.3,2.2,1.2,2,2.5M154,296.5c-.1.7-.8.9-1.4.8-.6-.1-1.2-.6-1-1.3.1-.7.8-.9,1.4-.8s1.2.6,1,1.3h0ZM267,284.8c0,.5-.4.8-.8.8s-.7-.4-.7-.9.4-.8.8-.8.7.4.7.8h0ZM347.2,232.2c-.2,1.1-.9,1.9-1.7,1.8-.8-.1-1.3-1.2-1.1-2.3.2-1.1.9-1.9,1.7-1.8.8.2,1.3,1.2,1.1,2.3h0ZM350.4,210.4c-.2,1.2-.9,1.9-1.7,1.7-.8-.2-1.3-1.3-1.1-2.5.2-1.2.9-1.9,1.7-1.7.8.2,1.3,1.3,1.1,2.5M382,210.5c-.2,1-.8,1.7-1.4,1.5s-1-1.2-.8-2.2.8-1.7,1.4-1.5,1,1.2.8,2.2M314.7,260.7c-.1.8-.7,1.4-1.3,1.4s-1.1-.7-1-1.6c.1-.8.7-1.4,1.3-1.4s1.1.8.9,1.6M158.1,321.5c0,.8-.7,1.5-1.6,1.8-.9-.7-1.8-1.3-2.6-2,.3-.8,1.1-1.4,2.1-1.4s2.1.7,2.1,1.6M198.6,334c0,.9-.9,1.7-1.9,1.8-1,.1-1.8-.5-1.7-1.4,0-.9.9-1.7,1.9-1.8,1-.1,1.7.5,1.7,1.4M172.9,316.9c0,.3-.3.6-.7.6s-.7-.2-.7-.5.3-.6.7-.6.7.2.6.5h0Z"/>
  <path class="st3" d="M276.6,198.4c-.7,1.8-1.6,3.5-2.8,5l-.5.6c-.8,1.1-1.7,2-2.7,2.9-1.8,1.5-3.9,2.7-6.2,3.3-5,1.4-10.8.4-16.1-3.1-7.6-5.1-16.3-8.5-25.4-10.2-4-.7-8.1-1.2-12.2-1.3,5.6-2.9,23.4-6,33.2-3.6,4.7,1.1,9.1,2.7,13.1,4.6.3.2.7.3,1,.4,3.2.8,6.7-2.9,8.1-8.4,2.7-10.1-2.2-21-8.1-27.9,1.5.8,2.9,1.6,4.4,2.5s3,1.9,4.4,2.9c5.6,4,9.3,10.3,10.7,16.7.2.9.4,1.9.5,2.8v.2c.5,4.4,0,8.8-1.5,12.6h.1Z"/>
  <path class="st3" d="M276.6,198.4c-.7,1.8-1.6,3.5-2.8,5l-.5.6c-.8,1.1-1.7,2-2.7,2.9-1.8,1.5-3.9,2.7-6.2,3.3-5,1.4-10.8.4-16.1-3.1-7.6-5.1-16.3-8.5-25.4-10.2,3.8-.2,18.4-.7,32.4,5.7,14.4,6.6,25.4-24.5,7.1-39.5,1.5.9,3,1.9,4.4,2.9,5.6,4,9.3,10.3,10.7,16.7.2.9.4,1.9.5,2.8v.2c.5,4.3,0,8.8-1.5,12.6h.1Z"/>
  <path class="st19" d="M167,288.3c-26.9-13.6-23.3-64.9,6.3-73.3-20.3,15.4-22.8,54.4-6.3,73.3"/>
  <path class="st16" d="M167,288.3c-26.9-13.6-23.3-64.9,6.3-73.3-20.3,15.4-22.8,54.4-6.3,73.3"/>
  <path class="st19" d="M167,288.3c-13-11.3-16.6-29.2-14.2-43.6,2.5-15.5,10.9-25.6,20.5-29.6-20.3,15.4-22.8,54.4-6.3,73.3"/>
  <path class="st3" d="M167,288.3c-21.6-18.8-13.7-64.9,6.3-73.3-20.3,15.4-22.8,54.4-6.3,73.3"/>
  <g class="st14">
    <g>
      <path class="st10" d="M399,303.7l-.5.2c-.1,0-.2,0-.3.1.3-.2.5-.4.8-.7.2-.1.3-.3.5-.4h.1c.1-.2.3-.4.4-.5l.4-.3.2-.2.3-.3.3-.3.2-.2.5-.5.5-.5h.1c.2-.3.3-.4.5-.6h0c.2-.2.4-.4.5-.6.2-.2.4-.4.5-.6.2-.2.3-.4.5-.6.2-.3.5-.6.7-.9.1-.2.2-.3.3-.4h0c.1-.3.3-.5.4-.6,0,0,0-.1.1-.2s.2-.3.3-.4c0-.1.2-.2.2-.4,0,0,.1-.2.2-.3,0-.1.2-.3.3-.4v-.2c.2-.2.3-.3.4-.5s.3-.4.4-.6.2-.4.3-.6h0c.1-.3.2-.4.3-.6.5-.8,1-1.7,1.4-2.6.1-.2.2-.4.3-.6.1-.2.2-.5.3-.7,0-.2.2-.4.3-.6l.2-.5c0-.2.2-.4.3-.6,0-.2.2-.4.3-.6v-.2c0-.2.1-.3.2-.5.2-.4.3-.8.5-1.2,0-.1,0-.2.1-.3,0-.1.1-.3.2-.4l.3-.7.2-.6c0-.1.1-.3.2-.4v-.2l.2-.4.2-.6.3-.9c0-.3.2-.5.2-.8v-.3c.2-.2.2-.4.3-.6.1-.4.2-.9.4-1.3,0-.2.1-.5.2-.7v-.3c0-.2.1-.4.2-.7h0c0-.1.2-.8.2-.8v-.3l.2-.9c0-.3.1-.7.2-1,0-.3.1-.6.2-.9h0c0-.3.1-.6.1-.9s.1-.7.2-1.1v-1c.1,0,.2-.8.2-.8v-.3c0-.3,0-.6.1-.9v-1c0-.5,0-1.1.1-1.6,0-1.1.1-2.2.2-3.3v-.7h0v-.6h0v-6.5c0-.5,0-.9-.1-1.4,0-.3,0-.7-.1-1v-.5c0-.2-.1-.4-.1-.6v-.4h0c0-.5-.1-.9-.2-1.4v-2.4c-.2-.5-.3-1-.4-1.5,0-.3-.1-.5-.2-.8,0-.3-.1-.6-.2-.9v-.5q-.1,0-.1-.1c0-.2-.1-.5-.2-.7h0c0-.3-.1-.5-.2-.7-.1-.5-.3-1-.4-1.5l-.2-.8c0-.2-.1-.4-.2-.7,0-.2-.2-.5-.2-.7s-.2-.5-.2-.7-.2-.5-.3-.7h0c0-.2-.2-.5-.3-.7,0-.2-.2-.4-.2-.7h0c0-.1-.2-.7-.2-.7v-.2c0-.2-.1-.3-.2-.5v-.2c0-.2-.1-.3-.2-.5v-.2c0-.2-.1-.3-.2-.5v-.3c-.2-.1-.2-.3-.3-.4,0-.2-.2-.4-.3-.6-.1-.2-.2-.5-.3-.7s-.2-.5-.4-.7c-.2-.5-.5-1-.7-1.4h0c-.2-.5-.5-.9-.8-1.4l-.4-.7c-.3-.5-.6-1-1-1.6,0-.1-.2-.3-.3-.4h0c-.1-.2-.2-.4-.4-.5v-.2c-.2-.2-.4-.4-.5-.6l-.5-.6c-.1-.2-.3-.4-.4-.6h0c-.1-.2-.2-.4-.3-.5,0,0-.1-.2-.2-.2-.1-.2-.3-.4-.4-.5-.2-.2-.3-.4-.5-.6-.2-.2-.3-.4-.5-.6-.2-.2-.4-.4-.6-.6-.2-.2-.3-.4-.5-.6h-.1c-.1-.3-.3-.4-.4-.5,34.1,16.5,32.7,76.8-3.4,89.9h0v-.9Z"/>
      <path class="st16" d="M399,303.7l-.5.2c-.1,0-.2,0-.3.1.3-.2.5-.4.8-.7.2-.1.3-.3.5-.4h.1c.1-.2.3-.4.4-.5l.4-.3.2-.2.3-.3.3-.3.2-.2.5-.5.5-.5h.1c.2-.3.3-.4.5-.6h0c.2-.2.4-.4.5-.6.2-.2.4-.4.5-.6.2-.2.3-.4.5-.6.2-.3.5-.6.7-.9.1-.2.2-.3.3-.4h0c.1-.3.3-.5.4-.6,0,0,0-.1.1-.2s.2-.3.3-.4c0-.1.2-.2.2-.4,0,0,.1-.2.2-.3,0-.1.2-.3.3-.4v-.2c.2-.2.3-.3.4-.5s.3-.4.4-.6.2-.4.3-.6h0c.1-.3.2-.4.3-.6.5-.8,1-1.7,1.4-2.6.1-.2.2-.4.3-.6.1-.2.2-.5.3-.7,0-.2.2-.4.3-.6l.2-.5c0-.2.2-.4.3-.6,0-.2.2-.4.3-.6v-.2c0-.2.1-.3.2-.5.2-.4.3-.8.5-1.2,0-.1,0-.2.1-.3,0-.1.1-.3.2-.4l.3-.7.2-.6c0-.1.1-.3.2-.4v-.2l.2-.4.2-.6.3-.9c0-.3.2-.5.2-.8v-.3c.2-.2.2-.4.3-.6.1-.4.2-.9.4-1.3,0-.2.1-.5.2-.7v-.3c0-.2.1-.4.2-.7h0c0-.1.2-.8.2-.8v-.3l.2-.9c0-.3.1-.7.2-1,0-.3.1-.6.2-.9h0c0-.3.1-.6.1-.9s.1-.7.2-1.1v-1c.1,0,.2-.8.2-.8v-.3c0-.3,0-.6.1-.9v-1c0-.5,0-1.1.1-1.6,0-1.1.1-2.2.2-3.3v-.7h0v-.6h0v-6.5c0-.5,0-.9-.1-1.4,0-.3,0-.7-.1-1v-.5c0-.2-.1-.4-.1-.6v-.4h0c0-.5-.1-.9-.2-1.4v-2.4c-.2-.5-.3-1-.4-1.5,0-.3-.1-.5-.2-.8,0-.3-.1-.6-.2-.9v-.5q-.1,0-.1-.1c0-.2-.1-.5-.2-.7h0c0-.3-.1-.5-.2-.7-.1-.5-.3-1-.4-1.5l-.2-.8c0-.2-.1-.4-.2-.7,0-.2-.2-.5-.2-.7s-.2-.5-.2-.7-.2-.5-.3-.7h0c0-.2-.2-.5-.3-.7,0-.2-.2-.4-.2-.7h0c0-.1-.2-.7-.2-.7v-.2c0-.2-.1-.3-.2-.5v-.2c0-.2-.1-.3-.2-.5v-.2c0-.2-.1-.3-.2-.5v-.3c-.2-.1-.2-.3-.3-.4,0-.2-.2-.4-.3-.6-.1-.2-.2-.5-.3-.7s-.2-.5-.4-.7c-.2-.5-.5-1-.7-1.4h0c-.2-.5-.5-.9-.8-1.4l-.4-.7c-.3-.5-.6-1-1-1.6,0-.1-.2-.3-.3-.4h0c-.1-.2-.2-.4-.4-.5v-.2c-.2-.2-.4-.4-.5-.6l-.5-.6c-.1-.2-.3-.4-.4-.6h0c-.1-.2-.2-.4-.3-.5,0,0-.1-.2-.2-.2-.1-.2-.3-.4-.4-.5-.2-.2-.3-.4-.5-.6-.2-.2-.3-.4-.5-.6-.2-.2-.4-.4-.6-.6-.2-.2-.3-.4-.5-.6h-.1c-.1-.3-.3-.4-.4-.5,34.1,16.5,32.7,76.8-3.4,89.9h0v-.9Z"/>
    </g>
  </g>
  <path class="st10" d="M422.4,266c-2.3,17.8-9.2,29.5-23.4,37.7l-.5.2h.1c6.2-5.6,10.9-12.6,14.1-20.5.2-.5.4-1,.6-1.5l.2-.6c0-.1.1-.3.2-.4v-.2c0-.1.1-.3.2-.4,0-.2.1-.4.2-.6.1-.3.2-.6.3-.9.1-.3.2-.6.3-1,.1-.4.2-.8.4-1.2v-.3c.7-2.6,1.3-5.2,1.7-7.8h0c0-.5.1-1,.2-1.4,0-.3,0-.7.1-1,0-.3,0-.7.1-1s0-.7.1-1c.1-1.6.2-3.2.3-4.9v-4c-.1-5.2-.8-10.4-2-15.5,0-.3-.1-.6-.2-.9,0-.2-.1-.4-.2-.6-.1-.5-.3-1-.4-1.5l-.2-.8h0l-.2-.6c0-.2-.2-.5-.2-.7s-.2-.5-.2-.7l-.3-.7h0c0-.2-.2-.5-.3-.7,0-.3-.2-.5-.3-.8,0-.2-.2-.4-.2-.6v-.2c0-.2-.1-.4-.2-.5v-.2c0-.2-.1-.3-.2-.5v-.2c-.2-.2-.2-.3-.3-.5v-.3c-.2-.1-.2-.3-.3-.4,0-.2-.2-.4-.3-.6-.1-.2-.2-.5-.3-.7-.1-.2-.2-.5-.3-.7-.2-.5-.5-1-.7-1.4h0c-.2-.5-.5-.9-.8-1.4-.1-.2-.3-.5-.4-.7-.3-.5-.6-1-1-1.6,0-.1-.2-.3-.3-.4h0l-.4-.6s0-.1-.1-.2c-.1-.2-.2-.4-.4-.6-.2-.2-.3-.4-.5-.6-.1-.2-.3-.4-.4-.6h0c-.1-.2-.2-.4-.3-.5l-.2-.2c-.1-.2-.3-.4-.4-.5-.2-.2-.3-.4-.5-.6l-.5-.6c-.2-.2-.4-.4-.6-.6-.2-.2-.3-.4-.5-.6h0c.3.2.6.4.9.7,14.8,11.5,20.6,34.5,18.6,50.9h0v-.2Z"/>
  <path class="st3" d="M398.7,303.7c-.2,0-.3.2-.5.2.3-.2.5-.4.8-.7.2-.1.3-.3.5-.4h.1c.1-.2.3-.4.4-.5l.4-.3.2-.2.3-.3.3-.3.2-.2.5-.5c.2-.2.3-.4.5-.5h.1c.2-.3.3-.4.5-.6h0c.2-.2.4-.4.5-.6.2-.2.4-.4.5-.6.2-.2.3-.4.5-.6.2-.3.5-.6.7-.9.1-.2.2-.3.3-.4h0c.2-.3.4-.6.5-.8.1-.1.2-.3.3-.4,0-.1.2-.2.2-.4,0,0,.1-.2.2-.3,0-.1.2-.3.3-.4v-.2c.2-.2.3-.3.4-.5s.3-.4.4-.6.2-.4.3-.6h0c.1-.3.2-.4.3-.6.5-.8,1-1.7,1.4-2.6.1-.2.2-.4.3-.6.1-.2.2-.5.3-.7.1-.2.2-.4.3-.6l.2-.5c0-.2.2-.4.3-.6,0-.2.2-.4.3-.6v-.2c0-.2.1-.3.2-.5.2-.4.3-.8.5-1.2,0-.1,0-.2.1-.3l.2-.4.3-.7.2-.6c0-.1.1-.3.2-.4v-.2l.2-.4.2-.6c.1-.3.2-.6.3-.9.1-.3.2-.6.3-1,0-.2.2-.5.2-.7.1-.4.2-.9.4-1.3,0-.2.1-.5.2-.7v-.3c0-.2.1-.4.2-.7h0c0-.3.1-.6.2-.8v-.3l.2-.9c0-.3.1-.7.2-1,0-.3.1-.6.2-.9h0c0-.3.1-.6.1-.9s.1-.7.2-1.1v-1h.1v-.8c.1,0,.1-.1.1-.2h0v-1c.1-.3.2-.7.2-1,0-.5,0-1.1.1-1.6,0-1.1.1-2.2.2-3.3v-1.2h0v-2.5h0v-3.1c0-.7,0-1.5-.2-2.2,0-.3,0-.7-.1-1v-.5c0-.2-.1-.4-.1-.6v-.4h0c0-.5-.1-1-.2-1.4v-2.4c-.2-.5-.3-1-.4-1.5,0-.3-.1-.5-.2-.8l-.2-.9v-.5q-.1,0-.1-.1c0-.2-.1-.5-.2-.7s-.1-.5-.2-.8c-.1-.5-.3-1-.4-1.5l-.2-.8h0l-.2-.6-.2-.7c0-.2-.2-.5-.2-.7l-.3-.7h0c0-.2-.2-.5-.3-.7,0-.2-.2-.4-.2-.7h0c0-.3-.2-.5-.2-.7v-.2c0-.2-.1-.4-.2-.5v-.2c-.2-.2-.2-.3-.3-.5v-.2c-.2-.2-.2-.3-.3-.5v-.2c-.2-.1-.2-.3-.3-.4,0-.2-.2-.4-.3-.6-.1-.2-.2-.5-.3-.7-.1-.2-.2-.5-.3-.7-.2-.5-.5-1-.7-1.4h0c-.2-.5-.5-.9-.8-1.4-.1-.2-.3-.5-.4-.7-.3-.5-.6-1-1-1.6,0-.1-.2-.3-.3-.4h0c-.1-.3-.2-.4-.4-.6,0,0,0-.1-.1-.2-.1-.2-.2-.4-.4-.6-.1-.2-.3-.4-.5-.6-.1-.2-.3-.4-.4-.6h0c-.1-.2-.2-.4-.3-.5l-.2-.3c-.1-.2-.3-.4-.4-.5-.2-.2-.3-.4-.5-.6-.2-.2-.3-.4-.5-.6-.3-.4-.7-.8-1.1-1.2h0s0-.1-.1-.1c-.1-.2-.3-.3-.4-.4.5.4,1,.8,1.4,1.3,21.9,20.4,23.4,74.2-5.2,88.6h0v-.9Z"/>
  <path class="st16" d="M161.1,229.7c0,1-1,1.7-2.2,1.6-1.2-.2-2.2-1.2-2.1-2.3s1-1.8,2.2-1.5c1.2.2,2.1,1.2,2.1,2.3M158.1,272.8c0,1-1,1.7-2.2,1.5s-2.2-1.2-2.1-2.3c0-1.1,1-1.8,2.2-1.6,1.2.2,2.1,1.2,2.1,2.3M155.1,241.5c0,.6-.6,1-1.2.9-.7-.1-1.2-.7-1.2-1.3s.6-1,1.2-.9c.7.1,1.2.7,1.2,1.3h0ZM152.9,266c0,.3-.3.5-.6.4-.3,0-.6-.3-.6-.6s.3-.5.6-.4c.3,0,.6.3.6.6"/>
  <path class="st17" d="M167.5,243c0-1.6.3-3,1-4.2s1.6-2.2,2.8-2.9,2.6-1,4.1-1,3.5.5,4.9,1.5c1.3,1,2.2,2.3,2.7,4.1h-4.3c-.3-.7-.8-1.2-1.4-1.5-.6-.3-1.3-.5-2-.5-1.2,0-2.2.4-2.9,1.2s-1.1,1.9-1.1,3.3.4,2.5,1.1,3.3c.7.8,1.7,1.3,2.9,1.3s1.4-.2,2-.5,1-.9,1.4-1.5h4.3c-.4,1.7-1.3,3.1-2.7,4.1-1.3,1-3,1.5-4.9,1.5s-2.9-.3-4.1-1c-1.2-.7-2.2-1.7-2.8-2.9-.7-1.2-1-2.6-1-4.2M193.5,251l-3.3-6h-.9v6h-3.9v-15.9h6.5c1.3,0,2.3.2,3.2.7.9.4,1.5,1,2,1.8.4.8.7,1.6.7,2.6s-.3,2-.9,2.8c-.6.8-1.5,1.4-2.6,1.8l3.7,6.3h-4.5ZM189.3,242.2h2.4c.7,0,1.2-.2,1.6-.5.4-.3.5-.8.5-1.5s-.2-1.1-.5-1.4c-.3-.3-.9-.5-1.6-.5h-2.4v3.9ZM204,238.1v3.2h5.2v3h-5.2v3.5h5.9v3.1h-9.7v-15.9h9.7v3.1h-5.9ZM218.4,235c1.7,0,3.1.3,4.4,1,1.2.6,2.2,1.6,2.9,2.8s1,2.6,1,4.1-.3,2.9-1,4.1c-.7,1.2-1.7,2.2-2.9,2.8-1.3.7-2.7,1-4.4,1h-6v-15.9h6ZM218.1,247.6c1.5,0,2.6-.4,3.4-1.2.8-.8,1.2-1.9,1.2-3.4s-.4-2.6-1.2-3.4c-.8-.8-2-1.2-3.4-1.2h-1.8v9.3h1.8ZM238.6,251l-3.2-4.9-2.9,4.9h-4.4l5.1-8.1-5.2-7.8h4.5l3.2,4.8,2.8-4.8h4.4l-5.1,8,5.3,7.9h-4.5Z"/>
</svg>