<?xml version="1.0" encoding="UTF-8"?>
<svg id="Layer_2" data-name="Layer 2" xmlns="http://www.w3.org/2000/svg" viewBox="0 0 75.68 16.19">
  <defs>
    <style>
      .cls-1 {
        fill: #062641;
      }
    </style>
  </defs>
  <g id="Layer_1-2" data-name="Layer 1">
    <path class="cls-1" d="M0,8.1c0-1.57.34-2.96,1.02-4.19.68-1.23,1.63-2.19,2.83-2.88,1.22-.69,2.6-1.04,4.15-1.04,1.89,0,3.51.5,4.85,1.5,1.34.99,2.24,2.34,2.69,4.06h-4.25c-.32-.67-.77-1.17-1.35-1.52-.58-.34-1.24-.52-1.98-.52-1.2,0-2.17.42-2.92,1.25-.74.83-1.1,1.95-1.1,3.33s.36,2.5,1.1,3.33c.75.83,1.72,1.25,2.92,1.25.73,0,1.4-.17,1.98-.52.58-.34,1.03-.85,1.35-1.52h4.25c-.45,1.72-1.34,3.08-2.69,4.06-1.35.99-2.97,1.48-4.85,1.48-1.54,0-2.93-.34-4.15-1.02-1.21-.69-2.16-1.65-2.83-2.88-.68-1.22-1.02-2.61-1.02-4.19Z"/>
    <path class="cls-1" d="M26.03,16.08l-3.31-6h-.92v6h-3.9V.17h6.52c1.25,0,2.31.22,3.19.67.89.43,1.55,1.03,1.98,1.79.44.77.67,1.62.67,2.56,0,1.06-.3,2-.9,2.83-.6.83-1.47,1.43-2.63,1.77l3.67,6.29h-4.38ZM21.81,7.33h2.4c.71,0,1.23-.17,1.58-.52.36-.34.54-.84.54-1.48,0-.59-.18-1.07-.54-1.42-.35-.34-.88-.52-1.58-.52h-2.4v3.94Z"/>
    <path class="cls-1" d="M36.58,3.27v3.23h5.19v2.98h-5.19v3.5h5.85v3.1h-9.75V.17h9.75v3.1h-5.85Z"/>
    <path class="cls-1" d="M50.92.17c1.67,0,3.13.33,4.38,1,1.26.67,2.23,1.6,2.92,2.81.69,1.2,1.04,2.58,1.04,4.15s-.35,2.94-1.04,4.15c-.68,1.21-1.66,2.15-2.92,2.81-1.27.67-2.72,1-4.38,1h-5.98V.17h5.98ZM50.67,12.73c1.46,0,2.59-.4,3.42-1.19.82-.8,1.23-1.94,1.23-3.42s-.41-2.59-1.23-3.42c-.82-.82-1.96-1.23-3.42-1.23h-1.83v9.25h1.83Z"/>
    <path class="cls-1" d="M71.16,16.08l-3.23-4.88-2.85,4.88h-4.4l5.08-8.08L60.56.17h4.52l3.19,4.81,2.81-4.81h4.4l-5.06,8.02,5.27,7.9h-4.52Z"/>
  </g>
</svg>